<svg xmlns="http://www.w3.org/2000/svg" viewBox="-150 -150 300 300" width="600" height="600"><style>path{stroke-width:.6px;vector-effect:non-scaling-stroke}.p{fill:#f4f2ed;stroke:#d8d3c9}.b{fill:#d9d5cc;stroke:#a9a397}.pa{fill:#2a78d6;fill-opacity:.5;stroke:#d8d3c9}.ba{fill:#8fb1e3;stroke:#a9a397}</style><rect x="-150" y="-150" width="300" height="300" fill="#ffffff"/><path class="p" d="M30.6 -185.1L50.2 -208.0L50.6 -207.7L60.1 -219.0L59.0 -222.0L55.3 -223.2L-1.9 -241.1L-7.9 -232.5L-16.8 -219.9L-17.8 -218.5L-23.2 -212.6L-40.5 -193.9L-43.8 -196.6L-44.0 -196.4L-59.6 -177.3L-51.9 -164.1L-48.5 -158.2L-42.0 -147.1L-35.4 -135.9L-32.2 -133.4L-25.6 -127.0L-18.0 -134.7L-7.1 -145.7L-7.4 -145.9L-9.7 -148.0L-14.1 -152.0L-11.2 -156.0L-7.4 -161.2L-7.2 -161.4L-35.9 -184.4L-27.1 -195.2L-24.0 -199.3L-12.8 -211.7L-9.7 -215.9L-5.7 -212.8L-5.1 -212.3L5.6 -204.6L8.0 -202.6L9.9 -200.8L14.4 -197.4L23.8 -190.2L30.6 -185.1Z"/><path class="p" d="M-120.7 -104.7L-120.3 -105.1L-119.6 -105.7L-118.6 -106.6L-115.7 -109.4L-104.3 -101.2L-101.2 -99.4L-97.1 -97.0L-91.7 -94.0L-89.2 -92.5L-88.1 -93.5L-83.0 -90.2L-83.5 -89.3L-84.0 -88.4L-81.6 -86.8L-81.5 -86.9L-75.2 -82.9L-71.2 -80.4L-72.8 -77.7L-72.6 -77.6L-70.8 -76.7L-68.7 -75.6L-56.5 -94.4L-57.1 -99.7L-76.6 -115.9L-77.2 -115.1L-78.1 -114.0L-81.7 -109.4L-83.1 -107.7L-83.9 -106.7L-85.8 -108.1L-87.6 -109.4L-91.4 -112.2L-96.4 -115.9L-93.4 -122.3L-93.3 -122.5L-94.6 -123.4L-98.0 -125.9L-99.8 -127.3L-101.7 -128.7L-105.0 -131.2L-113.4 -137.5L-117.4 -140.5L-117.8 -140.8L-118.9 -141.6L-121.5 -143.6L-122.9 -141.7L-128.5 -133.9L-129.2 -132.4L-130.5 -129.8L-130.8 -129.6L-136.8 -123.4L-137.9 -122.3L-120.7 -104.7Z"/><path class="p" d="M-51.9 -164.1L-59.6 -177.3L-44.0 -196.4L-46.2 -198.4L-45.0 -201.4L-39.7 -215.9L-35.2 -225.9L-33.6 -230.6L-31.8 -235.7L-32.7 -236.7L-30.8 -239.1L-28.6 -241.8L-24.2 -248.0L-31.5 -250.3L-36.7 -240.3L-46.3 -227.2L-45.9 -225.5L-57.5 -210.2L-53.9 -206.2L-80.1 -168.9L-75.4 -162.0L-61.6 -141.8L-51.9 -164.1Z"/><path class="p" d="M-68.7 -75.6L-70.8 -76.7L-72.6 -77.6L-72.8 -77.7L-71.2 -80.4L-75.2 -82.9L-77.1 -79.7L-77.5 -79.0L-80.4 -74.2L-80.5 -72.2L-77.4 -70.2L-75.6 -69.1L-70.4 -65.3L-65.9 -72.1L-69.3 -74.7L-68.7 -75.6Z"/><path class="pa" d="M-75.2 -82.9L-81.5 -86.9L-81.6 -86.8L-83.7 -83.5L-83.9 -83.1L-90.0 -73.4L-84.0 -67.2L-81.5 -64.5L-76.8 -59.6L-73.9 -60.0L-70.6 -65.1L-70.5 -65.1L-70.4 -65.3L-75.6 -69.1L-77.4 -70.2L-80.5 -72.2L-80.4 -74.2L-77.5 -79.0L-77.1 -79.7L-75.2 -82.9Z"/><path class="p" d="M-89.2 -92.5L-91.7 -94.0L-97.1 -97.0L-101.2 -99.4L-108.5 -92.2L-99.4 -82.9L-96.5 -85.7L-91.0 -90.8L-89.2 -92.5Z"/><path class="p" d="M-81.6 -86.8L-84.0 -88.4L-83.5 -89.3L-84.0 -89.6L-89.2 -92.5L-91.0 -90.8L-96.5 -85.7L-99.4 -82.9L-90.0 -73.4L-83.9 -83.1L-83.7 -83.5L-81.6 -86.8Z"/><path class="p" d="M-150.8 -135.4L-142.4 -145.9L-138.9 -150.2L-135.7 -154.2L-141.4 -158.4L-144.4 -154.7L-148.1 -150.2L-149.3 -148.6L-152.0 -145.3L-156.3 -141.0L-150.8 -135.4Z"/><path class="p" d="M-150.7 -179.7L-158.3 -172.5L-163.1 -167.9L-164.7 -166.4L-171.9 -159.5L-172.6 -158.8L-173.1 -158.3L-161.9 -146.7L-157.7 -151.0L-157.8 -151.2L-155.0 -154.2L-153.8 -155.4L-154.2 -155.8L-151.6 -158.9L-147.7 -163.5L-150.2 -165.7L-151.3 -166.6L-155.1 -169.9L-148.4 -176.5L-150.7 -179.7Z"/><path class="p" d="M-156.3 -141.0L-152.0 -145.3L-149.3 -148.6L-148.1 -150.2L-144.4 -154.7L-141.4 -158.4L-147.7 -163.5L-151.6 -158.9L-154.2 -155.8L-153.8 -155.4L-155.0 -154.2L-157.8 -151.2L-157.7 -151.0L-161.9 -146.7L-156.3 -141.0Z"/><path class="p" d="M-141.4 -158.4L-135.7 -154.2L-131.4 -151.0L-127.3 -148.0L-127.0 -148.3L-124.5 -151.6L-121.5 -155.4L-125.5 -158.5L-129.8 -161.9L-144.2 -173.2L-148.4 -176.5L-155.1 -169.9L-151.3 -166.6L-150.2 -165.7L-147.7 -163.5L-141.4 -158.4Z"/><path class="p" d="M-150.8 -135.4L-145.2 -129.7L-131.9 -142.2L-127.3 -148.0L-131.4 -151.0L-135.7 -154.2L-138.9 -150.2L-142.4 -145.9L-150.8 -135.4Z"/><path class="p" d="M-121.5 -155.4L-124.5 -151.6L-127.0 -148.3L-127.3 -148.0L-125.3 -146.5L-124.5 -145.8L-122.3 -144.2L-120.2 -146.9L-116.6 -151.6L-121.5 -155.4Z"/><path class="p" d="M-121.5 -143.6L-118.9 -141.6L-117.8 -140.8L-117.4 -140.5L-113.4 -137.5L-105.0 -131.2L-99.4 -138.0L-102.7 -140.6L-111.9 -147.9L-116.6 -151.6L-120.2 -146.9L-122.3 -144.2L-121.5 -143.6Z"/><path class="p" d="M-105.0 -131.2L-101.7 -128.7L-99.8 -127.3L-98.5 -129.1L-98.3 -129.3L-94.5 -134.1L-99.4 -138.0L-105.0 -131.2Z"/><path class="p" d="M-99.8 -127.3L-98.0 -125.9L-94.6 -123.4L-89.7 -130.2L-94.5 -134.1L-98.3 -129.3L-98.5 -129.1L-99.8 -127.3Z"/><path class="p" d="M-94.6 -123.4L-93.3 -122.5L-93.4 -122.3L-96.4 -115.9L-91.4 -112.2L-89.9 -114.7L-87.8 -118.3L-86.3 -120.8L-83.2 -125.1L-89.7 -130.2L-94.6 -123.4Z"/><path class="p" d="M-91.4 -112.2L-87.6 -109.4L-85.9 -112.0L-82.5 -117.4L-82.3 -117.7L-79.1 -121.7L-83.2 -125.1L-86.3 -120.8L-87.8 -118.3L-89.9 -114.7L-91.4 -112.2Z"/><path class="p" d="M-87.6 -109.4L-85.8 -108.1L-83.9 -106.7L-83.1 -107.7L-81.7 -109.4L-78.1 -114.0L-77.2 -115.1L-76.6 -115.9L-74.7 -118.3L-79.1 -121.7L-82.3 -117.7L-82.5 -117.4L-85.9 -112.0L-87.6 -109.4Z"/><path class="p" d="M-120.7 -104.7L-114.0 -97.8L-108.5 -92.2L-101.2 -99.4L-104.3 -101.2L-115.7 -109.4L-118.6 -106.6L-119.6 -105.7L-120.3 -105.1L-120.7 -104.7Z"/><path class="p" d="M-83.5 -89.3L-83.0 -90.2L-88.1 -93.5L-89.2 -92.5L-84.0 -89.6L-83.5 -89.3Z"/><path class="p" d="M-61.6 -141.8L-75.4 -162.0L-83.8 -151.5L-87.9 -146.4L-90.5 -143.1L-91.7 -141.7L-70.8 -125.2L-70.1 -126.0L-66.7 -130.2L-62.8 -134.8L-59.2 -139.2L-60.2 -140.1L-61.6 -141.8Z"/><path class="p" d="M-75.4 -162.0L-80.1 -168.9L-84.9 -174.2L-94.4 -162.3L-95.4 -161.2L-101.7 -153.3L-102.1 -152.8L-103.5 -151.1L-91.7 -141.7L-90.5 -143.1L-87.9 -146.4L-83.8 -151.5L-75.4 -162.0Z"/><path class="p" d="M-137.9 -122.3L-136.8 -123.4L-130.8 -129.6L-130.5 -129.8L-129.2 -132.4L-128.5 -133.9L-122.9 -141.7L-121.5 -143.6L-122.3 -144.2L-124.5 -145.8L-125.3 -146.5L-127.3 -148.0L-131.9 -142.2L-145.2 -129.7L-137.9 -122.3Z"/><path class="pa" d="M-70.8 -125.2L-64.8 -120.4L-64.8 -120.3L-55.4 -112.7L-53.2 -110.8L-50.4 -114.7L-50.2 -115.1L-47.0 -120.3L-45.1 -123.4L-45.0 -123.6L-41.8 -128.7L-52.0 -135.3L-53.3 -133.8L-57.6 -137.7L-59.2 -139.2L-62.8 -134.8L-66.7 -130.2L-70.1 -126.0L-70.8 -125.2Z"/><path class="p" d="M-53.2 -110.8L-47.9 -107.3L-42.2 -112.1L-43.6 -113.4L-44.1 -113.8L-45.7 -111.9L-47.7 -113.5L-47.9 -113.2L-50.2 -115.1L-50.4 -114.7L-53.2 -110.8Z"/><path class="pa" d="M-47.7 -113.5L-45.7 -111.9L-44.1 -113.8L-43.6 -113.4L-42.2 -112.1L-39.7 -114.3L-36.3 -117.3L-34.4 -118.9L-36.2 -120.7L-32.9 -124.6L-36.8 -128.6L-33.8 -131.7L-37.9 -135.3L-40.1 -132.8L-40.6 -130.0L-39.6 -129.1L-39.1 -126.1L-42.0 -121.6L-44.1 -118.3L-47.7 -113.5Z"/><path class="p" d="M-7.4 -161.2L-11.2 -156.0L-14.1 -152.0L-9.7 -148.0L-7.4 -145.9L-7.1 -145.7L1.4 -154.2L0.9 -154.6L-3.6 -158.2L-7.4 -161.2Z"/><path class="p" d="M-52.0 -135.3L-41.8 -128.7L-41.7 -128.9L-51.9 -135.4L-52.0 -135.3Z"/><path class="p" d="M-25.6 -127.0L-32.2 -133.4L-35.4 -135.9L-42.0 -147.1L-46.3 -141.9L-46.4 -142.1L-51.9 -135.4L-41.7 -128.9L-40.9 -130.3L-40.6 -130.0L-40.1 -132.8L-37.9 -135.3L-33.8 -131.7L-36.8 -128.6L-32.9 -124.6L-36.2 -120.7L-34.4 -118.9L-33.9 -118.6L-25.6 -127.0Z"/><path class="p" d="M-48.5 -158.2L-51.9 -164.1L-61.6 -141.8L-60.2 -140.1L-59.2 -139.2L-57.6 -137.7L-54.3 -141.3L-48.5 -158.2Z"/><path class="p" d="M-45.0 -123.6L-45.1 -123.4L-47.0 -120.3L-44.1 -118.3L-42.0 -121.6L-45.0 -123.6Z"/><path class="p" d="M-47.0 -120.3L-50.2 -115.1L-47.9 -113.2L-47.7 -113.5L-44.1 -118.3L-47.0 -120.3Z"/><path class="p" d="M-42.0 -147.1L-48.5 -158.2L-54.3 -141.3L-57.6 -137.7L-53.3 -133.8L-52.0 -135.3L-51.9 -135.4L-46.4 -142.1L-46.3 -141.9L-42.0 -147.1Z"/><path class="p" d="M-41.8 -128.7L-45.0 -123.6L-42.0 -121.6L-39.1 -126.1L-39.6 -129.1L-40.6 -130.0L-40.9 -130.3L-41.7 -128.9L-41.8 -128.7Z"/><path class="p" d="M101.9 -86.0L141.6 -63.9L146.7 -82.0L148.9 -88.8L149.0 -89.0L159.7 -122.3L179.0 -173.4L161.6 -180.6L157.8 -175.7L124.9 -132.7L129.9 -128.0L129.2 -127.1L125.9 -122.0L117.0 -108.6L112.1 -101.3L101.9 -86.0Z"/><path class="p" d="M101.9 -86.0L112.1 -101.3L117.0 -108.6L125.9 -122.0L129.2 -127.1L129.9 -128.0L124.9 -132.7L157.8 -175.7L161.6 -180.6L148.8 -185.9L143.6 -188.1L137.0 -182.1L132.0 -177.7L117.8 -164.9L103.5 -152.1L107.1 -149.1L107.6 -148.8L101.2 -139.2L100.9 -138.9L76.4 -102.2L60.2 -112.8L55.9 -115.6L38.1 -86.8L44.6 -83.4L31.4 -61.1L27.8 -55.1L29.6 -53.9L58.7 -38.6L61.0 -42.0L63.2 -45.3L63.5 -45.8L64.7 -47.6L65.9 -49.5L67.0 -51.1L69.2 -54.5L75.7 -50.5L79.5 -56.1L81.0 -55.2L85.1 -61.5L85.5 -61.2L101.9 -86.0Z"/><path class="p" d="M31.4 -61.1L44.6 -83.4L38.1 -86.8L55.9 -115.6L60.2 -112.8L76.4 -102.2L100.9 -138.9L101.2 -139.2L100.9 -139.4L96.3 -142.5L103.0 -152.5L96.0 -158.3L131.7 -193.1L119.6 -198.1L114.0 -191.9L102.0 -178.7L101.8 -178.8L88.3 -187.6L81.4 -192.1L95.0 -208.3L76.5 -216.0L71.7 -214.8L47.1 -185.8L64.8 -170.5L65.3 -170.3L55.9 -155.8L49.6 -146.0L48.3 -147.2L41.8 -145.5L40.1 -145.3L38.6 -141.6L37.5 -140.2L36.6 -139.0L19.0 -116.8L16.5 -118.7L15.2 -116.8L9.6 -108.6L8.9 -109.1L8.4 -108.2L5.8 -104.5L4.1 -105.7L3.1 -104.5L-1.3 -109.1L-1.1 -109.3L-7.2 -113.5L-15.9 -120.1L-30.6 -105.6L-31.9 -104.3L-28.6 -102.1L7.4 -77.4L7.3 -78.0L13.2 -84.9L13.8 -86.1L18.9 -95.5L19.7 -96.9L19.9 -96.7L24.6 -94.1L21.9 -86.2L19.5 -82.1L15.1 -74.5L14.4 -72.7L24.8 -65.6L31.4 -61.1Z"/><path class="pa" d="M101.9 -86.0L85.5 -61.2L85.1 -61.5L81.0 -55.2L77.3 -49.6L75.7 -50.5L75.2 -49.6L73.4 -47.0L67.0 -51.1L65.9 -49.5L64.7 -47.6L63.5 -45.8L63.2 -45.3L69.3 -41.0L83.7 -31.0L92.7 -24.8L93.2 -24.5L95.9 -28.5L105.1 -22.1L120.1 -11.6L128.3 -5.8L129.7 -4.9L130.1 -5.9L134.0 -13.8L134.4 -14.7L136.8 -19.6L138.8 -18.7L147.4 -14.9L147.8 -14.7L149.0 -16.4L149.6 -16.0L153.7 -21.6L146.5 -25.0L140.9 -27.7L141.7 -29.4L142.3 -30.6L142.3 -33.4L143.6 -32.8L150.1 -45.7L157.0 -42.8L166.4 -38.8L191.6 -72.6L194.0 -75.7L159.2 -90.7L157.5 -85.7L149.0 -89.0L148.9 -88.8L146.7 -82.0L141.6 -63.9L101.9 -86.0Z"/><path class="p" d="M156.0 129.1L160.4 119.2L160.5 118.9L162.1 114.0L165.2 104.2L168.8 93.2L174.5 75.4L176.9 68.1L177.2 67.3L172.4 66.5L165.6 65.4L164.1 71.3L163.1 75.2L162.2 78.7L160.4 85.7L158.3 93.5L155.7 103.8L154.8 107.3L148.3 105.7L146.5 111.2L145.3 115.1L135.1 113.2L130.0 138.6L131.8 141.3L149.1 144.8L156.0 129.1Z"/><path class="p" d="M27.8 -55.1L31.4 -61.1L24.8 -65.6L14.4 -72.7L7.4 -77.4L-28.6 -102.1L-31.9 -104.3L-34.2 -102.1L-33.6 -97.1L27.8 -55.1Z"/><path class="p" d="M23.1 -43.7L23.6 -44.6L-2.4 -60.9L-5.9 -55.7L-7.4 -53.5L-7.8 -52.5L-10.8 -48.0L-13.3 -44.2L-14.3 -42.8L-14.2 -42.7L-16.7 -38.9L-19.0 -35.5L-16.0 -32.4L-12.8 -29.2L-1.9 -18.0L-3.4 -16.6L-0.6 -13.1L2.8 -8.7L7.7 -2.3L12.9 4.4L23.2 -5.6L16.9 -9.7L6.7 -16.2L12.6 -26.3L15.5 -31.1L18.0 -35.2L18.2 -35.6L18.4 -35.9L23.1 -43.7Z"/><path class="p" d="M70.2 24.5L67.2 22.5L66.8 22.3L63.3 25.7L53.6 35.0L48.8 39.6L48.1 40.3L39.5 48.5L39.3 48.7L33.7 54.1L45.4 66.1L51.4 61.1L51.9 60.7L60.8 53.4L72.0 44.2L76.9 40.2L81.1 36.7L85.4 33.2L89.9 29.5L81.3 20.4L77.0 24.0L76.8 24.1L73.8 26.7L71.9 25.5L70.2 24.5Z"/><path class="p" d="M159.7 -122.3L149.0 -89.0L157.5 -85.7L159.2 -90.7L194.0 -75.7L204.4 -89.5L191.4 -98.9L183.9 -102.3L182.7 -99.4L173.4 -101.7L164.1 -104.0L169.4 -118.9L159.7 -122.3Z"/><path class="pa" d="M33.7 54.1L39.3 48.7L39.5 48.5L48.1 40.3L48.8 39.6L53.6 35.0L63.3 25.7L66.8 22.3L65.9 21.7L62.3 19.4L59.2 17.4L57.9 16.6L55.0 14.7L50.4 11.8L43.5 18.4L35.5 26.1L26.3 35.0L20.5 40.6L24.0 44.2L33.7 54.1Z"/><path class="p" d="M61.4 66.5L59.3 68.3L53.6 73.4L60.5 80.6L60.0 81.1L63.3 84.4L64.5 85.6L67.6 85.8L73.8 80.2L63.0 68.3L61.4 66.5Z"/><path class="p" d="M61.4 66.5L63.0 68.3L73.8 80.2L82.5 72.2L79.0 68.3L75.8 64.7L74.0 62.7L72.0 60.4L70.3 58.6L61.4 66.5Z"/><path class="p" d="M72.0 44.2L60.8 53.4L51.9 60.7L51.4 61.1L45.4 66.1L53.0 73.9L53.6 73.4L59.3 68.3L61.4 66.5L70.3 58.6L72.7 56.6L76.2 53.6L76.3 53.5L72.0 44.2Z"/><path class="p" d="M70.3 58.6L72.0 60.4L74.0 62.7L75.8 64.7L79.0 68.3L82.5 72.2L84.3 70.6L88.3 66.9L86.6 64.9L83.9 61.8L83.1 60.9L85.3 58.8L88.0 56.2L86.5 54.3L81.8 48.7L80.1 50.1L76.3 53.5L76.2 53.6L72.7 56.6L70.3 58.6Z"/><path class="p" d="M81.8 48.7L86.5 54.3L88.0 56.2L85.3 58.8L83.1 60.9L83.9 61.8L86.6 64.9L88.3 66.9L93.7 62.0L94.3 62.6L102.3 55.2L101.9 54.6L104.5 52.3L102.0 47.4L100.4 44.0L97.4 40.7L94.7 37.6L88.5 43.0L81.8 48.7Z"/><path class="p" d="M89.9 29.5L85.4 33.2L81.1 36.7L76.9 40.2L72.0 44.2L76.3 53.5L80.1 50.1L81.8 48.7L88.5 43.0L94.7 37.6L103.0 29.9L103.3 29.6L108.2 23.4L111.0 19.9L111.8 20.6L116.8 14.5L118.8 12.0L119.7 12.4L120.0 12.5L122.6 5.7L115.0 2.7L111.6 9.2L112.8 9.8L112.3 10.2L111.3 11.1L100.4 20.6L95.7 24.6L92.8 27.1L89.9 29.5Z"/><path class="p" d="M86.0 95.9L90.7 104.7L92.8 102.8L93.7 101.8L95.7 99.4L100.8 93.2L103.6 89.8L106.9 85.9L108.3 84.2L111.1 80.7L111.7 80.0L116.9 73.7L111.2 69.0L108.3 66.8L103.9 71.4L99.7 67.1L99.3 66.8L91.3 73.9L95.4 79.0L95.6 79.2L96.0 79.7L96.8 80.7L98.2 82.5L97.6 83.1L95.3 85.7L90.8 90.6L88.0 93.8L86.0 95.9Z"/><path class="p" d="M95.3 85.7L97.6 83.1L98.2 82.5L96.8 80.7L96.0 79.7L95.6 79.2L95.4 79.0L91.3 73.9L88.7 76.3L92.6 81.9L95.3 85.7Z"/><path class="p" d="M90.8 90.6L95.3 85.7L92.6 81.9L88.7 76.3L84.8 79.8L85.2 80.6L88.1 85.7L88.7 86.7L89.1 87.5L89.7 88.6L90.8 90.6Z"/><path class="p" d="M86.0 95.9L88.0 93.8L90.8 90.6L89.7 88.6L89.1 87.5L88.7 86.7L88.1 85.7L85.2 80.6L80.2 84.8L83.9 91.8L84.8 93.6L86.0 95.9Z"/><path class="p" d="M86.0 95.9L84.8 93.6L83.9 91.8L80.2 84.8L79.8 84.1L74.5 89.3L74.8 89.7L73.0 91.5L73.1 94.6L83.9 105.5L86.8 108.6L91.0 105.4L90.7 104.7L86.0 95.9Z"/><path class="p" d="M100.8 93.2L95.7 99.4L93.7 101.8L92.8 102.8L90.7 104.7L91.0 105.4L86.8 108.6L87.4 109.5L90.7 112.9L95.8 118.0L104.5 106.1L105.8 104.4L109.3 99.6L107.6 98.3L106.2 97.2L103.6 95.3L100.8 93.2Z"/><path class="p" d="M104.5 106.1L95.8 118.0L105.6 128.1L115.0 113.5L115.8 113.6L116.4 110.7L111.2 109.6L109.6 109.3L107.5 108.9L107.0 108.4L107.2 108.2L104.5 106.1Z"/><path class="p" d="M116.9 73.7L111.7 80.0L111.1 80.7L108.3 84.2L106.9 85.9L103.6 89.8L100.8 93.2L103.6 95.3L106.2 97.2L107.6 98.3L109.3 99.6L110.3 94.8L111.1 90.7L111.4 89.0L111.6 88.2L113.5 88.5L120.5 89.8L120.6 89.3L123.4 75.1L116.9 73.7Z"/><path class="p" d="M160.4 85.7L162.2 78.7L163.1 75.2L157.2 74.0L143.6 71.2L142.0 79.4L144.1 80.2L151.3 82.6L155.1 83.9L155.3 84.0L160.4 85.7Z"/><path class="p" d="M158.3 93.5L160.4 85.7L155.3 84.0L155.1 83.9L151.3 82.6L144.1 80.2L142.0 79.4L139.4 91.9L149.2 92.8L153.2 93.1L158.3 93.5Z"/><path class="p" d="M155.7 103.8L158.3 93.5L153.2 93.1L149.2 92.8L139.4 91.9L137.7 100.3L147.0 102.4L155.7 103.8Z"/><path class="p" d="M135.1 113.2L145.3 115.1L146.5 111.2L148.3 105.7L154.8 107.3L155.7 103.8L147.0 102.4L137.7 100.3L135.1 113.2Z"/><path class="p" d="M163.1 75.2L164.1 71.3L165.6 65.4L166.1 63.6L168.3 54.8L151.3 51.2L147.8 50.4L143.6 71.2L157.2 74.0L163.1 75.2Z"/><path class="p" d="M108.3 66.8L111.2 69.0L116.9 73.7L123.4 75.1L125.2 66.4L127.0 57.6L118.1 50.4L114.5 53.7L118.0 56.7L116.0 58.8L108.3 66.8Z"/><path class="p" d="M109.3 99.6L105.8 104.4L104.5 106.1L107.2 108.2L107.0 108.4L107.5 108.9L109.6 109.3L111.2 109.6L116.4 110.7L120.5 89.8L113.5 88.5L111.6 88.2L111.4 89.0L111.1 90.7L110.3 94.8L109.3 99.6Z"/><path class="p" d="M105.6 128.1L109.2 131.8L112.5 130.8L115.8 113.6L115.0 113.5L105.6 128.1Z"/><path class="p" d="M156.0 129.1L149.1 144.8L155.5 146.1L157.9 138.1L159.2 133.6L159.8 131.4L160.1 130.4L156.0 129.1Z"/><path class="p" d="M-3.4 -16.6L-1.9 -18.0L-12.8 -29.2L-16.2 -26.0L-16.3 -25.9L-24.2 -18.4L-30.9 -12.0L-19.9 -0.6L-13.1 -7.2L-11.1 -9.2L-8.0 -12.1L-5.6 -14.4L-3.4 -16.6Z"/><path class="p" d="M2.8 -8.7L-0.6 -13.1L-3.4 -16.6L-5.6 -14.4L-8.0 -12.1L-11.1 -9.2L-13.1 -7.2L-19.9 -0.6L-18.1 1.2L-12.9 6.5L-5.0 -1.2L-4.2 -2.0L-1.2 -4.8L2.1 -8.0L2.8 -8.7Z"/><path class="p" d="M7.7 -2.3L2.8 -8.7L2.1 -8.0L-1.2 -4.8L-4.2 -2.0L-5.0 -1.2L-12.9 6.5L-7.4 12.2L-1.8 6.9L0.6 4.6L4.2 1.1L7.5 -2.1L7.7 -2.3Z"/><path class="p" d="M12.9 4.4L7.7 -2.3L7.5 -2.1L4.2 1.1L0.6 4.6L-1.8 6.9L-7.4 12.2L-1.4 18.2L4.0 13.0L12.9 4.4Z"/><path class="p" d="M23.2 -5.6L12.9 4.4L4.0 13.0L-1.4 18.2L1.7 21.3L6.0 25.8L13.0 19.0L13.2 18.8L15.2 16.8L19.8 12.4L20.6 11.6L32.3 0.3L28.9 -1.9L23.2 -5.6Z"/><path class="p" d="M23.1 -43.7L18.4 -35.9L18.2 -35.6L18.0 -35.2L15.5 -31.1L12.6 -26.3L6.7 -16.2L16.9 -9.7L23.2 -5.6L28.9 -1.9L32.3 0.3L41.0 5.9L41.4 1.7L41.5 0.1L41.7 -1.7L41.9 -12.9L42.0 -13.2L42.0 -13.7L42.1 -17.4L42.5 -26.9L42.9 -33.4L23.1 -43.7Z"/><path class="pa" d="M50.4 11.8L48.7 10.7L41.3 6.0L20.2 26.4L19.7 26.9L19.0 27.6L13.2 33.2L18.8 38.9L20.5 40.6L26.3 35.0L35.5 26.1L43.5 18.4L50.4 11.8Z"/><path class="p" d="M32.3 0.3L20.6 11.6L19.8 12.4L15.2 16.8L13.2 18.8L13.0 19.0L6.0 25.8L13.2 33.2L19.0 27.6L19.7 26.9L20.2 26.4L41.3 6.0L41.0 5.9L32.3 0.3Z"/><path class="p" d="M-19.0 -35.5L-16.7 -38.9L-14.2 -42.7L-14.3 -42.8L-23.0 -49.3L-29.3 -54.0L-31.2 -55.4L-31.7 -55.8L-34.5 -52.0L-34.5 -50.7L-38.1 -45.3L-34.8 -42.9L-35.7 -41.0L-38.2 -36.1L-40.6 -32.3L-45.7 -27.4L-38.0 -19.3L-30.0 -28.1L-28.7 -29.6L-24.1 -27.9L-21.7 -31.6L-19.0 -35.5Z"/><path class="p" d="M94.7 37.6L97.4 40.7L100.4 44.0L103.3 41.4L103.9 40.8L104.7 40.1L103.7 39.0L106.8 36.4L114.1 44.6L116.5 42.4L116.0 41.6L112.1 36.0L116.7 33.6L123.3 26.7L124.5 25.4L123.7 24.0L124.8 23.4L125.5 24.3L126.8 23.2L127.5 22.7L130.1 25.0L133.3 22.3L134.0 22.4L136.9 11.2L122.6 5.7L120.0 12.5L119.7 12.4L118.8 12.0L116.8 14.5L111.8 20.6L111.0 19.9L108.2 23.4L103.3 29.6L103.0 29.9L94.7 37.6Z"/><path class="p" d="M81.3 20.4L89.9 29.5L92.8 27.1L95.7 24.6L100.4 20.6L111.3 11.1L112.3 10.2L112.8 9.8L111.6 9.2L115.0 2.7L104.3 -1.4L100.7 2.4L95.4 7.5L94.2 8.8L90.0 12.8L84.5 18.1L81.3 20.4Z"/><path class="pa" d="M70.2 24.5L71.9 25.5L73.8 26.7L76.8 24.1L77.0 24.0L81.3 20.4L84.5 18.1L90.0 12.8L94.2 8.8L95.4 7.5L100.7 2.4L104.3 -1.4L103.0 -1.9L96.8 -5.1L93.6 0.8L91.9 2.4L91.4 3.0L79.1 14.4L70.2 14.4L70.2 19.0L70.2 21.9L70.2 24.5Z"/><path class="p" d="M70.2 14.4L79.1 14.4L91.4 3.0L91.9 2.4L93.6 0.8L96.8 -5.1L88.8 -9.3L86.0 -3.1L85.3 -1.5L80.6 -2.3L70.1 -4.2L70.2 14.4Z"/><path class="p" d="M70.1 -4.2L80.6 -2.3L85.3 -1.5L86.0 -3.1L88.8 -9.3L70.1 -19.1L70.1 -13.1L70.1 -12.1L70.1 -11.0L70.1 -7.6L70.1 -4.2Z"/><path class="p" d="M70.2 24.5L70.2 21.9L70.2 19.0L70.2 14.4L70.1 -4.2L70.1 -7.6L70.1 -11.0L70.1 -12.1L70.1 -13.1L70.1 -19.1L60.5 -24.1L60.2 -14.3L59.9 -7.1L59.4 11.2L59.3 12.7L59.2 17.0L59.2 17.4L62.3 19.4L65.9 21.7L66.8 22.3L67.2 22.5L70.2 24.5Z"/><path class="p" d="M50.4 11.8L55.0 14.7L57.9 16.6L59.2 17.4L59.2 17.0L59.3 12.7L59.4 11.2L59.9 -7.1L60.2 -14.3L60.5 -24.1L51.2 -29.0L49.8 -24.7L49.7 -22.3L49.6 -19.0L49.4 -13.1L49.1 -1.5L49.0 1.5L48.7 10.7L50.4 11.8Z"/><path class="p" d="M42.9 -33.4L42.5 -26.9L42.1 -17.4L42.0 -13.7L42.0 -13.2L41.9 -12.9L41.7 -1.7L41.5 0.1L41.4 1.7L41.0 5.9L41.3 6.0L48.7 10.7L49.0 1.5L49.1 -1.5L49.4 -13.1L49.6 -19.0L49.7 -22.3L49.8 -24.7L51.2 -29.0L42.9 -33.4Z"/><path class="p" d="M60.0 81.1L60.5 80.6L53.6 73.4L53.0 73.9L53.4 74.3L60.0 81.1Z"/><path class="p" d="M100.4 44.0L102.0 47.4L104.5 52.3L107.7 49.4L108.9 48.4L109.3 49.0L114.1 44.6L106.8 36.4L103.7 39.0L104.7 40.1L103.9 40.8L103.3 41.4L100.4 44.0Z"/><path class="p" d="M134.0 22.4L133.3 22.3L130.1 25.0L127.5 22.7L126.8 23.2L125.5 24.3L124.8 23.4L123.7 24.0L124.5 25.4L123.3 26.7L116.7 33.6L112.1 36.0L116.0 41.6L120.5 37.5L127.2 31.4L133.6 25.5L134.0 22.4Z"/><path class="p" d="M168.3 54.8L169.2 51.5L169.2 51.1L161.5 49.6L162.0 47.4L162.6 44.5L161.3 43.9L162.3 39.1L159.8 38.6L150.6 36.6L149.6 41.7L147.8 50.4L151.3 51.2L168.3 54.8Z"/><path class="p" d="M118.1 50.4L127.0 57.6L129.9 43.2L127.5 42.0L118.1 50.4Z"/><path class="p" d="M99.7 67.1L103.9 71.4L108.3 66.8L116.0 58.8L118.0 56.7L114.5 53.7L99.7 67.1Z"/><path class="p" d="M147.8 -14.7L141.4 -5.4L137.3 0.6L129.6 -4.7L128.3 -2.1L135.6 1.8L140.5 0.2L143.7 -8.0L148.5 -14.4L147.8 -14.7Z"/><path class="p" d="M147.8 -14.7L147.4 -14.9L138.8 -18.7L136.8 -19.6L134.4 -14.7L134.0 -13.8L130.1 -5.9L129.7 -4.9L129.6 -4.7L137.3 0.6L141.4 -5.4L147.8 -14.7Z"/><path class="p" d="M16.5 -118.7L19.9 -124.0L25.5 -132.2L31.3 -140.8L32.6 -142.7L32.1 -143.2L32.3 -143.4L19.5 -155.2L18.8 -155.9L11.2 -149.0L8.2 -146.4L3.3 -142.0L-3.2 -136.3L-1.6 -134.3L3.2 -128.8L1.7 -127.4L-4.9 -121.1L2.8 -113.3L7.0 -109.1L14.1 -117.5L15.7 -119.3L16.5 -118.7Z"/><path class="pa" d="M14.4 -72.7L15.1 -74.5L19.5 -82.1L21.9 -86.2L24.6 -94.1L19.9 -96.7L19.7 -96.9L18.9 -95.5L13.8 -86.1L13.2 -84.9L7.3 -78.0L7.4 -77.4L14.4 -72.7Z"/><path class="p" d="M-48.5 -83.7L-48.9 -83.9L-54.0 -76.2L-50.1 -72.9L-50.9 -71.8L-48.4 -69.3L-45.2 -66.2L-41.7 -70.7L-40.8 -70.0L-37.5 -74.4L-39.2 -75.9L-41.3 -77.7L-48.5 -83.7Z"/><path class="p" d="M-48.5 -83.7L-41.3 -77.7L-39.2 -75.9L-37.5 -74.4L-35.8 -72.9L-35.0 -73.9L-30.2 -80.3L-42.7 -88.8L-45.2 -87.5L-48.5 -83.7Z"/><path class="p" d="M-37.5 -74.4L-40.8 -70.0L-41.7 -70.7L-45.2 -66.2L-41.7 -63.5L-33.6 -57.2L-32.2 -59.6L-30.6 -62.3L-27.3 -68.0L-27.1 -68.3L-23.0 -75.4L-30.2 -80.3L-35.0 -73.9L-35.8 -72.9L-37.5 -74.4Z"/><path class="p" d="M-31.2 -55.4L-29.3 -54.0L-23.0 -49.3L-21.3 -51.8L-17.6 -56.9L-16.1 -59.0L-15.7 -59.6L-10.5 -66.8L-20.0 -73.2L-24.3 -66.2L-24.7 -65.7L-25.8 -64.0L-26.0 -63.6L-29.7 -57.7L-31.2 -55.4Z"/><path class="p" d="M-14.3 -42.8L-13.3 -44.2L-10.8 -48.0L-13.5 -50.1L-11.5 -53.3L-8.7 -57.8L-5.4 -63.3L-10.5 -66.8L-15.7 -59.6L-16.1 -59.0L-17.6 -56.9L-21.3 -51.8L-23.0 -49.3L-14.3 -42.8Z"/><path class="p" d="M-10.8 -48.0L-7.8 -52.5L-7.4 -53.5L-5.9 -55.7L-2.4 -60.9L-2.3 -61.2L-5.4 -63.3L-8.7 -57.8L-11.5 -53.3L-13.5 -50.1L-10.8 -48.0Z"/><path class="pa" d="M-45.7 -27.4L-40.6 -32.3L-38.2 -36.1L-35.7 -41.0L-34.8 -42.9L-38.1 -45.3L-38.3 -45.4L-40.0 -46.6L-40.7 -47.1L-43.5 -49.2L-46.0 -46.7L-47.0 -45.7L-50.1 -42.7L-52.3 -40.5L-55.5 -37.4L-45.7 -27.4Z"/><path class="p" d="M-43.5 -49.2L-50.7 -53.5L-54.0 -55.5L-61.8 -60.0L-63.7 -61.2L-68.5 -53.6L-68.1 -50.5L-65.3 -47.7L-55.5 -37.4L-52.3 -40.5L-50.1 -42.7L-47.0 -45.7L-46.0 -46.7L-43.5 -49.2Z"/><path class="p" d="M-30.9 -12.0L-24.2 -18.4L-16.3 -25.9L-16.2 -26.0L-19.4 -29.2L-21.7 -31.6L-24.1 -27.9L-28.7 -29.6L-30.0 -28.1L-38.0 -19.3L-30.9 -12.0Z"/><path class="p" d="M-12.8 -29.2L-16.0 -32.4L-19.0 -35.5L-21.7 -31.6L-19.4 -29.2L-16.2 -26.0L-12.8 -29.2Z"/><path class="p" d="M-38.1 -45.3L-34.5 -50.7L-34.5 -52.0L-31.7 -55.8L-31.8 -55.9L-33.6 -57.2L-41.7 -63.5L-45.2 -66.2L-48.4 -69.3L-50.9 -71.8L-50.1 -72.9L-54.0 -76.2L-63.7 -61.2L-61.8 -60.0L-54.0 -55.5L-50.7 -53.5L-43.5 -49.2L-40.7 -47.1L-40.0 -46.6L-38.3 -45.4L-38.1 -45.3Z"/><path class="p" d="M-31.7 -55.8L-31.2 -55.4L-29.7 -57.7L-26.0 -63.6L-25.8 -64.0L-24.7 -65.7L-24.3 -66.2L-20.0 -73.2L-23.0 -75.4L-27.1 -68.3L-27.3 -68.0L-30.6 -62.3L-32.2 -59.6L-33.6 -57.2L-31.8 -55.9L-31.7 -55.8Z"/><path class="p" d="M81.0 -55.2L79.5 -56.1L75.7 -50.5L77.3 -49.6L81.0 -55.2Z"/><path class="p" d="M75.7 -50.5L69.2 -54.5L67.0 -51.1L73.4 -47.0L75.2 -49.6L75.7 -50.5Z"/><path class="p" d="M166.4 -38.8L157.0 -42.8L150.1 -45.7L143.6 -32.8L146.0 -31.9L148.5 -30.9L149.5 -30.5L157.9 -27.2L166.4 -38.8Z"/><path class="p" d="M143.6 -32.8L142.3 -33.4L142.3 -30.6L141.7 -29.4L140.9 -27.7L146.5 -25.0L153.7 -21.6L157.9 -27.2L149.5 -30.5L148.5 -30.9L146.0 -31.9L143.6 -32.8Z"/><path class="p" d="M147.8 -14.7L148.5 -14.4L149.6 -16.0L149.0 -16.4L147.8 -14.7Z"/><path class="p" d="M4.1 -105.7L-1.1 -109.3L-1.3 -109.1L3.1 -104.5L4.1 -105.7Z"/><path class="p" d="M16.5 -118.7L19.0 -116.8L36.6 -139.0L32.6 -142.7L31.3 -140.8L25.5 -132.2L19.9 -124.0L16.5 -118.7Z"/><path class="p" d="M-15.9 -120.1L-7.2 -113.5L-1.1 -109.3L2.0 -112.5L2.8 -113.3L-4.9 -121.1L1.7 -127.4L3.2 -128.8L-1.6 -134.3L-6.8 -129.2L-15.9 -120.1Z"/><path class="p" d="M4.1 -105.7L7.0 -109.1L2.8 -113.3L2.0 -112.5L-1.1 -109.3L4.1 -105.7Z"/><path class="p" d="M4.1 -105.7L5.8 -104.5L8.4 -108.2L8.9 -109.1L9.6 -108.6L15.2 -116.8L16.5 -118.7L15.7 -119.3L14.1 -117.5L7.0 -109.1L4.1 -105.7Z"/><path class="p" d="M32.6 -142.7L33.4 -144.0L35.0 -146.4L32.3 -143.4L32.1 -143.2L32.6 -142.7Z"/><path class="p" d="M36.5 -148.7L36.6 -148.8L40.1 -153.8L39.7 -154.1L35.2 -149.9L35.6 -149.5L36.5 -148.7Z"/><path class="p" d="M35.0 -146.4L35.2 -146.6L36.8 -148.4L36.5 -148.7L35.0 -146.4Z"/><path class="p" d="M36.6 -139.0L37.5 -140.2L38.6 -141.6L40.1 -145.3L36.8 -148.4L35.2 -146.6L35.0 -146.4L33.4 -144.0L32.6 -142.7L36.6 -139.0Z"/><path class="p" d="M19.5 -155.2L32.3 -143.4L35.0 -146.4L36.5 -148.7L35.6 -149.5L35.2 -149.9L39.7 -154.1L33.2 -158.6L35.6 -162.2L33.4 -164.1L34.1 -165.0L31.5 -167.2L22.6 -158.3L19.5 -155.2Z"/><path class="p" d="M40.1 -145.3L41.8 -145.5L48.3 -147.2L49.6 -146.0L55.9 -155.8L65.3 -170.3L64.8 -170.5L47.1 -185.8L40.4 -177.9L52.9 -168.2L43.1 -157.4L39.7 -154.1L40.1 -153.8L36.6 -148.8L36.5 -148.7L36.8 -148.4L40.1 -145.3Z"/><path class="p" d="M101.2 -139.2L107.6 -148.8L107.1 -149.1L103.5 -152.1L103.0 -152.5L96.3 -142.5L100.9 -139.4L101.2 -139.2Z"/><path class="p" d="M5.5 292.0L8.2 292.1L9.8 292.2L27.4 293.3L69.2 239.9L76.3 231.0L69.4 221.6L71.6 220.0L73.0 221.8L80.2 216.2L83.5 221.7L88.3 215.4L100.1 190.6L100.3 190.3L103.1 174.2L100.5 147.2L100.4 146.4L100.0 145.5L99.6 144.4L99.1 143.5L98.5 142.6L97.8 141.7L97.3 141.0L64.3 107.1L58.8 107.3L44.4 126.0L43.5 127.2L41.2 130.3L29.8 144.9L29.5 144.6L16.8 162.3L17.2 162.8L19.4 165.5L6.5 182.1L-9.8 203.0L-12.7 206.8L-13.4 209.0L-13.7 208.9L-13.9 209.3L-13.5 209.7L-16.7 218.1L-17.4 217.8L-19.3 225.4L-19.8 225.8L-20.4 231.8L-21.5 231.5L-22.9 238.2L-22.7 238.3L-24.1 246.9L-23.0 247.1L-26.7 268.1L-29.9 289.4L-23.1 289.9L-23.1 290.1L-22.4 290.1L-22.2 290.2L-17.7 290.5L-3.8 291.4L5.5 292.0Z"/><path class="p" d="M-89.4 101.7L-93.1 101.7L-93.7 101.7L-105.0 101.9L-120.1 102.0L-130.6 102.1L-131.4 102.1L-138.3 102.1L-142.7 102.2L-142.9 99.4L-143.2 96.6L-154.0 96.7L-164.3 96.7L-176.9 96.8L-178.3 96.8L-180.0 96.9L-178.9 112.2L-179.1 112.2L-178.9 122.1L-164.2 121.6L-153.9 121.2L-114.4 119.9L-114.4 120.2L-114.1 126.4L-114.0 126.3L-101.7 125.8L-94.3 125.5L-92.4 125.5L-78.6 124.9L-78.7 121.3L-78.9 115.5L-56.9 115.2L-58.7 109.8L-59.7 107.1L-61.2 102.8L-61.6 101.4L-68.7 101.4L-70.6 101.5L-71.3 101.5L-73.2 101.5L-79.4 101.6L-81.6 101.6L-89.4 101.7Z"/><path class="p" d="M-114.0 126.3L-114.1 126.4L-114.4 120.2L-114.4 119.9L-153.9 121.2L-164.2 121.6L-178.9 122.1L-195.6 122.6L-194.6 129.2L-197.9 128.9L-203.3 127.3L-206.7 126.3L-207.7 126.0L-209.6 125.5L-213.0 124.5L-216.7 123.4L-216.9 122.4L-222.1 123.1L-219.6 137.1L-214.2 135.9L-208.0 134.6L-198.9 132.6L-193.0 132.5L-173.0 132.0L-162.0 131.8L-161.4 152.3L-150.3 152.2L-150.5 131.3L-144.5 131.2L-135.5 131.0L-128.8 130.9L-124.4 130.8L-122.0 130.8L-114.0 130.6L-113.3 130.6L-114.0 126.3Z"/><path class="p" d="M-89.4 101.7L-89.4 98.3L-89.3 96.9L-89.1 80.5L-67.8 79.9L-71.5 67.5L-73.3 61.2L-75.8 43.3L-89.8 43.5L-93.9 43.5L-101.1 43.6L-109.9 43.7L-130.6 43.9L-135.5 43.9L-135.3 46.9L-134.6 57.1L-134.5 58.8L-134.2 64.7L-133.4 76.9L-131.6 99.1L-131.4 102.1L-130.6 102.1L-120.1 102.0L-105.0 101.9L-93.7 101.7L-93.1 101.7L-89.4 101.7Z"/><path class="pa" d="M11.4 52.6L10.1 51.3L-4.5 36.3L-6.7 34.0L-13.4 27.1L-22.5 35.8L-22.5 38.0L-22.5 38.6L-22.7 49.6L-22.7 50.5L-22.8 54.6L-25.4 58.5L-41.6 50.4L-42.0 50.3L-54.5 44.0L-62.4 40.2L-69.1 36.8L-65.6 61.1L-56.0 93.9L-44.1 99.9L-42.6 100.7L-42.0 100.8L-41.6 100.9L-33.0 102.3L-31.3 92.6L-29.8 84.0L-28.7 81.6L-18.5 88.7L-12.5 82.0L-9.5 78.5L-2.4 66.0L-2.3 65.9L9.8 54.2L11.4 52.6Z"/><path class="p" d="M-31.3 92.6L-33.0 102.3L-41.6 100.9L-42.0 100.8L-42.6 100.7L-54.5 98.8L-54.7 98.8L-46.3 123.5L-41.9 136.4L-41.7 136.3L-41.6 136.7L-37.5 148.9L-34.3 151.2L-23.4 151.0L-16.5 152.9L-15.0 142.1L-14.8 141.1L2.3 143.8L2.2 144.9L6.2 145.6L6.2 145.3L8.7 145.8L8.3 148.4L17.1 150.0L23.6 141.7L22.9 141.1L27.5 134.9L37.4 121.7L43.8 113.8L40.8 111.2L38.7 109.3L34.3 105.0L32.4 103.3L-12.8 95.8L-31.3 92.6Z"/><path class="p" d="M-135.5 43.9L-130.6 43.9L-109.9 43.7L-101.1 43.6L-93.9 43.5L-89.8 43.5L-75.8 43.3L-78.3 25.5L-94.5 26.4L-94.9 26.4L-110.7 27.3L-111.4 10.2L-111.5 8.2L-115.0 8.4L-115.5 3.6L-116.6 -9.3L-114.9 -9.5L-117.1 -25.4L-139.9 -21.9L-139.5 -15.5L-139.0 -8.7L-138.1 4.8L-137.3 15.9L-136.6 26.0L-138.0 27.7L-171.1 29.5L-169.8 44.8L-158.1 42.2L-136.3 43.9L-135.5 43.9Z"/><path class="p" d="M-180.0 96.9L-178.3 96.8L-176.9 96.8L-164.3 96.7L-154.0 96.7L-143.2 96.6L-142.9 99.4L-142.7 102.2L-138.3 102.1L-131.4 102.1L-131.6 99.1L-133.4 76.9L-134.2 64.7L-134.5 58.8L-134.6 57.1L-145.5 57.6L-156.3 58.1L-157.5 57.3L-185.8 57.1L-190.6 57.0L-193.5 56.9L-197.5 56.9L-197.6 62.6L-191.1 62.7L-191.2 67.7L-191.2 69.0L-190.3 69.1L-190.4 74.0L-190.4 75.2L-190.6 86.4L-190.6 89.2L-180.6 89.7L-180.0 96.9Z"/><path class="p" d="M-135.5 43.9L-136.3 43.9L-158.1 42.2L-169.8 44.8L-169.9 44.8L-195.6 44.5L-195.7 56.1L-197.5 56.1L-197.5 56.9L-193.5 56.9L-190.6 57.0L-185.8 57.1L-157.5 57.3L-156.3 58.1L-145.5 57.6L-134.6 57.1L-135.3 46.9L-135.5 43.9Z"/><path class="pa" d="M-12.8 95.8L32.4 103.3L44.4 105.2L47.7 108.8L51.4 103.8L41.4 94.1L41.1 93.8L38.4 89.7L38.2 89.2L38.4 89.0L42.7 84.8L37.9 79.9L27.2 68.9L24.2 65.8L17.1 71.5L12.3 75.5L-12.8 95.8Z"/><path class="p" d="M-78.6 124.9L-92.4 125.5L-94.3 125.5L-101.7 125.8L-114.0 126.3L-113.3 130.6L-113.2 131.8L-112.9 136.5L-112.5 136.5L-108.4 136.3L-104.0 136.0L-101.3 135.8L-99.1 135.7L-96.2 135.5L-93.8 135.3L-81.6 134.6L-80.7 134.5L-76.2 134.5L-70.8 134.4L-70.1 134.4L-63.7 134.3L-63.5 134.3L-59.2 134.3L-54.3 134.2L-50.3 134.1L-53.9 123.6L-61.0 124.0L-64.8 124.2L-71.9 124.6L-78.6 124.9Z"/><path class="p" d="M17.1 150.0L8.3 148.4L5.9 148.0L6.2 145.6L2.2 144.9L2.3 143.8L-14.8 141.1L-15.0 142.1L-16.5 152.9L-15.4 153.2L8.7 159.6L13.7 153.0L14.4 153.6L17.1 150.0Z"/><path class="p" d="M-135.5 131.0L-144.5 131.2L-150.5 131.3L-150.3 152.2L-141.7 152.1L-140.8 152.0L-132.9 151.9L-132.9 146.9L-132.9 143.1L-132.9 143.0L-133.3 141.0L-133.8 138.5L-135.5 131.0Z"/><path class="p" d="M-80.7 134.5L-81.6 134.6L-93.8 135.3L-96.2 135.5L-93.3 151.6L-78.1 151.4L-80.7 134.5Z"/><path class="p" d="M-63.5 134.3L-63.7 134.3L-70.1 134.4L-70.8 134.4L-76.2 134.5L-80.7 134.5L-78.1 151.4L-70.6 151.4L-69.5 151.4L-65.7 151.4L-58.0 151.3L-54.4 151.3L-47.0 151.3L-45.4 148.7L-45.9 147.7L-46.6 142.1L-46.6 141.9L-55.3 142.0L-58.0 142.0L-59.4 142.1L-63.7 142.1L-63.6 139.4L-63.5 134.3Z"/><path class="p" d="M-56.9 115.2L-78.9 115.5L-78.7 121.3L-78.6 124.9L-71.9 124.6L-64.8 124.2L-61.0 124.0L-53.9 123.6L-55.4 119.3L-56.9 115.2Z"/><path class="p" d="M-89.4 101.7L-81.6 101.6L-79.4 101.6L-73.2 101.5L-71.3 101.5L-70.6 101.5L-68.7 101.4L-61.6 101.4L-62.7 97.4L-67.8 79.9L-89.1 80.5L-89.3 96.9L-89.4 98.3L-89.4 101.7Z"/><path class="p" d="M-96.2 135.5L-99.1 135.7L-101.3 135.8L-104.0 136.0L-103.8 137.6L-103.0 144.3L-102.1 151.7L-93.3 151.6L-96.2 135.5Z"/><path class="p" d="M-104.0 136.0L-108.4 136.3L-108.2 137.8L-107.9 139.5L-107.4 143.3L-106.1 151.7L-102.1 151.7L-103.0 144.3L-103.8 137.6L-104.0 136.0Z"/><path class="p" d="M-69.1 36.8L-62.4 40.2L-54.5 44.0L-42.0 50.3L-41.6 50.4L-41.6 49.9L-40.2 19.8L-40.0 15.4L-33.3 9.1L-32.1 8.0L-38.1 1.8L-39.3 2.9L-44.6 8.0L-49.8 7.9L-51.8 7.8L-54.6 7.5L-56.5 8.1L-73.2 7.6L-69.1 36.8Z"/><path class="p" d="M-113.3 130.6L-114.0 130.6L-122.0 130.8L-122.0 136.0L-122.1 142.2L-116.2 142.0L-112.3 141.9L-112.5 136.5L-112.9 136.5L-113.2 131.8L-113.3 130.6Z"/><path class="p" d="M-122.0 130.8L-124.4 130.8L-128.8 130.9L-135.5 131.0L-133.8 138.5L-133.3 141.0L-132.9 143.0L-132.9 143.1L-132.9 146.9L-132.9 151.9L-131.2 151.9L-123.7 151.9L-122.3 151.8L-122.4 146.3L-122.1 142.2L-122.0 136.0L-122.0 130.8Z"/><path class="p" d="M-108.4 136.3L-112.5 136.5L-112.3 141.9L-111.5 151.8L-106.1 151.7L-107.4 143.3L-107.9 139.5L-108.2 137.8L-108.4 136.3Z"/><path class="p" d="M-112.3 141.9L-116.2 142.0L-122.1 142.2L-122.4 146.3L-122.3 151.8L-122.0 151.8L-111.5 151.8L-112.3 141.9Z"/><path class="p" d="M11.4 52.6L9.8 54.2L-2.3 65.9L-2.4 66.0L-9.5 78.5L-12.5 82.0L-18.5 88.7L-28.7 81.6L-29.8 84.0L-31.3 92.6L-12.8 95.8L12.3 75.5L1.1 68.7L7.8 62.1L12.7 57.3L14.4 55.7L14.3 55.5L11.4 52.6Z"/><path class="p" d="M-41.6 50.4L-25.4 58.5L-22.8 54.6L-22.7 50.5L-22.7 49.6L-22.5 38.6L-22.5 38.0L-22.5 35.8L-13.4 27.1L-15.4 25.0L-16.7 23.6L-24.3 15.9L-30.1 10.0L-32.1 8.0L-33.3 9.1L-40.0 15.4L-40.2 19.8L-41.6 49.9L-41.6 50.4Z"/><path class="p" d="M12.3 75.5L17.1 71.5L24.2 65.8L14.4 55.7L12.7 57.3L7.8 62.1L1.1 68.7L12.3 75.5Z"/><path class="p" d="M-42.6 100.7L-44.1 99.9L-56.0 93.9L-55.3 96.4L-54.5 98.8L-42.6 100.7Z"/><path class="p" d="M-50.3 134.1L-54.3 134.2L-59.2 134.3L-63.5 134.3L-63.6 139.4L-63.7 142.1L-59.4 142.1L-58.0 142.0L-55.3 142.0L-46.6 141.9L-49.3 134.1L-50.3 134.1Z"/><path class="p" d="M42.7 84.8L38.4 89.0L38.2 89.2L38.4 89.7L41.1 93.8L41.4 94.1L51.4 103.8L54.3 100.0L54.2 96.7L42.7 84.8Z"/><path class="p" d="M8.3 148.4L8.7 145.8L6.2 145.3L6.2 145.6L5.9 148.0L8.3 148.4Z"/><path class="p" d="M32.4 103.3L34.3 105.0L38.7 109.3L40.8 111.2L43.8 113.8L44.1 113.5L47.7 108.8L44.4 105.2L32.4 103.3Z"/><path class="p" d="M-171.1 29.5L-138.0 27.7L-136.6 26.0L-137.3 15.9L-166.6 18.1L-166.9 13.2L-167.4 7.6L-169.7 7.8L-175.9 8.3L-180.6 8.8L-185.5 9.3L-185.7 8.2L-187.4 8.3L-187.3 9.3L-187.0 9.3L-185.8 18.8L-184.5 30.3L-181.7 30.1L-171.1 29.5Z"/><path class="p" d="M-137.3 15.9L-138.1 4.8L-139.0 -8.7L-139.5 -15.5L-139.9 -21.9L-151.0 -20.3L-150.4 -9.9L-150.3 -8.1L-148.5 -8.4L-148.3 -5.9L-147.4 5.7L-156.4 6.5L-159.5 6.8L-161.0 6.9L-167.4 7.6L-166.9 13.2L-166.6 18.1L-137.3 15.9Z"/><path class="p" d="M-163.4 -18.4L-161.6 -6.7L-160.4 1.1L-159.5 6.8L-156.4 6.5L-147.4 5.7L-148.3 -5.9L-148.5 -8.4L-150.3 -8.1L-150.4 -9.9L-151.0 -20.3L-154.0 -19.8L-156.4 -19.5L-163.4 -18.4Z"/><path class="p" d="M-94.5 -30.9L-105.7 -27.1L-105.9 -27.1L-103.7 -15.9L-102.7 -10.8L-104.6 -10.7L-106.3 -10.6L-106.3 -10.4L-106.2 -9.0L-105.1 4.8L-104.9 8.0L-103.1 7.9L-95.6 7.6L-95.8 4.5L-96.3 -11.2L-96.1 -11.2L-91.6 -11.3L-92.2 -15.3L-94.5 -30.9Z"/><path class="pa" d="M-94.5 -30.9L-92.2 -15.3L-91.6 -11.3L-96.1 -11.2L-96.3 -11.2L-95.8 4.5L-95.6 7.6L-80.6 6.9L-81.1 -20.0L-80.3 -20.2L-79.3 -36.7L-94.5 -30.9Z"/><path class="p" d="M-117.1 -25.4L-114.9 -9.5L-116.6 -9.3L-115.5 3.6L-115.0 8.4L-111.5 8.2L-111.4 10.2L-110.7 27.3L-94.9 26.4L-94.5 26.4L-78.3 25.5L-80.5 8.6L-80.6 6.9L-95.6 7.6L-103.1 7.9L-104.9 8.0L-105.1 4.8L-106.2 -9.0L-106.3 -10.4L-106.3 -10.6L-104.6 -10.7L-102.7 -10.8L-103.7 -15.9L-105.9 -27.1L-109.7 -26.5L-117.1 -25.4Z"/><path class="p" d="M-73.2 7.6L-56.5 8.1L-54.6 7.5L-51.8 7.8L-49.8 7.9L-44.6 8.0L-39.3 2.9L-38.1 1.8L-41.5 -1.7L-50.9 -11.3L-55.0 -7.4L-73.4 -8.3L-73.3 4.5L-73.3 5.1L-73.2 7.6Z"/><path class="p" d="M-73.4 -8.3L-55.0 -7.4L-50.9 -11.3L-55.9 -16.4L-57.9 -18.5L-65.0 -18.8L-67.0 -18.9L-73.5 -19.2L-73.4 -8.3Z"/><path class="p" d="M-73.5 -19.2L-67.0 -18.9L-65.0 -18.8L-57.9 -18.5L-67.2 -27.9L-70.9 -31.8L-73.6 -30.8L-73.5 -19.2Z"/><path class="p" d="M-130.9 -44.4L-117.8 -49.1L-118.0 -50.2L-111.9 -49.9L-111.8 -48.0L-109.7 -48.4L-104.7 -49.2L-103.4 -43.4L-101.8 -36.7L-86.1 -44.5L-86.2 -47.8L-88.6 -50.2L-105.4 -67.4L-116.1 -78.3L-120.5 -74.1L-111.2 -62.4L-116.4 -57.1L-166.4 -44.4L-168.8 -43.8L-166.7 -36.3L-166.6 -36.1L-152.4 -39.4L-142.2 -41.8L-141.0 -42.0L-130.9 -44.4Z"/><path class="p" d="M-168.8 -43.8L-166.4 -44.4L-116.4 -57.1L-111.2 -62.4L-120.5 -74.1L-122.4 -76.5L-118.1 -80.1L-121.5 -83.5L-132.0 -94.1L-134.4 -91.5L-141.6 -88.5L-147.1 -86.2L-153.5 -83.3L-163.8 -78.6L-165.1 -78.0L-166.1 -77.6L-169.4 -76.2L-179.7 -71.7L-181.1 -71.2L-182.1 -45.1L-170.0 -48.2L-170.0 -47.9L-169.3 -45.5L-168.8 -43.8Z"/><path class="p" d="M-169.4 -76.2L-166.1 -77.6L-165.1 -78.0L-163.8 -78.6L-153.5 -83.3L-147.1 -86.2L-141.6 -88.5L-134.4 -91.5L-132.0 -94.1L-131.7 -94.4L-135.7 -98.5L-141.8 -104.7L-146.8 -100.0L-150.5 -96.7L-169.6 -87.4L-169.7 -87.4L-169.4 -76.2Z"/><path class="p" d="M-179.7 -71.7L-169.4 -76.2L-169.7 -87.4L-169.6 -87.4L-150.5 -96.7L-146.8 -100.0L-141.8 -104.7L-151.1 -114.4L-156.1 -119.4L-159.6 -117.3L-166.2 -113.3L-169.9 -111.2L-174.9 -108.2L-181.1 -104.5L-181.0 -102.2L-180.8 -96.8L-180.6 -92.5L-179.7 -71.7Z"/><path class="p" d="M-120.5 -74.1L-116.1 -78.3L-118.0 -80.2L-118.1 -80.1L-122.4 -76.5L-120.5 -74.1Z"/><path class="pa" d="M-101.8 -36.7L-103.4 -43.4L-104.7 -49.2L-109.7 -48.4L-111.8 -48.0L-111.2 -41.9L-114.3 -41.6L-114.2 -40.0L-114.0 -33.3L-106.7 -34.3L-101.8 -36.7Z"/><path class="p" d="M-130.9 -44.4L-130.1 -39.6L-129.9 -38.3L-125.1 -39.3L-124.2 -31.8L-117.5 -32.8L-114.0 -33.3L-114.2 -40.0L-114.3 -41.6L-111.2 -41.9L-111.8 -48.0L-111.9 -49.9L-118.0 -50.2L-117.8 -49.1L-130.9 -44.4Z"/><path class="p" d="M-141.0 -42.0L-142.2 -41.8L-152.4 -39.4L-152.2 -37.8L-151.9 -35.9L-151.2 -30.2L-150.9 -28.0L-140.0 -29.5L-140.8 -36.9L-141.2 -40.9L-140.9 -40.9L-141.0 -42.0Z"/><path class="p" d="M-130.9 -44.4L-141.0 -42.0L-140.9 -40.9L-141.2 -40.9L-140.8 -36.9L-140.0 -29.5L-124.2 -31.8L-125.1 -39.3L-129.9 -38.3L-130.1 -39.6L-130.9 -44.4Z"/><path class="b" d="M-58.7 -175.7L-51.9 -164.1L-42.0 -147.1L-35.4 -135.9L-35.3 -135.8L-34.1 -137.3L-18.1 -157.1L-16.2 -155.7L-20.2 -150.5L-20.7 -149.6L-20.5 -148.8L-20.1 -148.0L-18.9 -146.4L-18.2 -145.9L-15.5 -143.7L-16.7 -142.4L-13.4 -139.6L-7.4 -145.9L-9.7 -148.0L-14.1 -152.0L-11.2 -156.0L-7.4 -161.2L-7.2 -161.4L-35.9 -184.4L-27.1 -195.2L-24.0 -199.3L-12.8 -211.7L-9.7 -215.9L-5.7 -212.8L-5.1 -212.3L5.6 -204.6L8.0 -202.6L9.9 -200.8L14.4 -197.4L23.8 -190.2L30.6 -185.1L50.2 -208.0L57.4 -216.6L57.6 -217.0L57.9 -217.8L57.9 -218.4L57.9 -219.2L57.7 -220.0L57.6 -220.6L57.3 -221.3L56.9 -221.9L56.3 -222.4L55.9 -222.8L55.3 -223.2L-1.9 -241.1L-7.9 -232.5L-5.5 -231.1L-3.1 -234.2L-1.2 -232.3L-3.1 -229.8L-2.1 -229.1L-11.1 -217.4L-12.1 -218.1L-13.7 -216.1L-13.4 -215.8L-14.8 -214.7L-17.8 -218.5L-23.2 -212.6L-40.5 -193.9L-43.8 -196.6L-44.0 -196.4L-53.4 -185.0L-59.6 -177.3L-58.7 -175.7Z"/><path class="b" d="M-44.8 -123.9L-55.7 -129.4L-55.8 -129.3L-57.5 -127.3L-65.5 -133.8L-63.8 -135.9L-72.0 -142.7L-70.3 -144.7L-74.9 -148.5L-74.1 -149.5L-82.1 -156.1L-81.0 -157.3L-86.5 -161.9L-87.5 -160.6L-92.5 -164.8L-94.4 -162.3L-95.4 -161.2L-101.7 -153.3L-76.5 -133.4L-78.3 -131.1L-70.8 -125.2L-64.8 -120.3L-55.4 -112.7L-53.2 -110.8L-50.4 -114.7L-50.2 -115.1L-47.0 -120.3L-44.8 -123.9Z"/><path class="ba" d="M-84.0 -67.2L-81.5 -64.5L-79.9 -66.7L-80.7 -67.2L-79.6 -68.9L-78.7 -68.3L-77.4 -70.2L-81.2 -72.3L-84.0 -67.2Z"/><path class="ba" d="M-77.5 -79.0L-77.1 -79.7L-75.2 -82.9L-81.5 -86.9L-81.6 -86.8L-83.7 -83.5L-83.9 -83.1L-77.5 -79.0Z"/><path class="b" d="M-84.0 -89.6L-89.2 -92.5L-91.0 -90.8L-96.5 -85.7L-90.5 -79.4L-86.7 -83.0L-85.7 -84.8L-84.9 -86.2L-86.2 -87.5L-84.0 -89.6Z"/><path class="b" d="M-66.7 -95.7L-66.2 -96.4L-67.2 -97.1L-68.0 -97.6L-67.6 -98.2L-63.7 -103.9L-77.2 -115.1L-78.1 -114.0L-81.7 -109.4L-83.1 -107.7L-78.6 -103.1L-75.8 -101.4L-82.9 -90.1L-83.0 -90.2L-83.5 -89.3L-80.9 -87.8L-81.5 -86.9L-75.2 -82.9L-74.6 -83.7L-66.7 -95.7Z"/><path class="ba" d="M-81.5 -64.5L-76.8 -59.6L-73.9 -60.0L-70.6 -65.1L-70.5 -65.1L-70.4 -65.3L-75.6 -69.1L-77.4 -70.2L-78.7 -68.3L-79.9 -66.7L-81.5 -64.5Z"/><path class="b" d="M-75.6 -69.1L-70.4 -65.3L-65.9 -72.1L-69.3 -74.7L-68.7 -75.6L-70.8 -76.7L-75.6 -69.1Z"/><path class="b" d="M-72.6 -77.6L-72.8 -77.7L-71.2 -80.4L-75.2 -82.9L-77.1 -79.7L-73.1 -77.0L-72.6 -77.6Z"/><path class="b" d="M-74.6 -83.7L-73.6 -83.0L-65.6 -95.0L-66.7 -95.7L-74.6 -83.7Z"/><path class="b" d="M-155.0 -154.2L-157.8 -151.2L-157.7 -151.0L-161.9 -146.7L-156.3 -141.0L-152.0 -145.3L-149.3 -148.6L-155.0 -154.2Z"/><path class="b" d="M-148.1 -150.2L-149.3 -148.6L-152.0 -145.3L-156.3 -141.0L-150.8 -135.4L-142.4 -145.9L-148.1 -150.2Z"/><path class="b" d="M-131.4 -151.0L-127.3 -148.0L-127.0 -148.3L-124.5 -151.6L-121.5 -155.4L-125.5 -158.5L-131.4 -151.0Z"/><path class="b" d="M-113.4 -137.5L-105.0 -131.2L-99.4 -138.0L-102.7 -140.6L-107.0 -135.3L-112.0 -139.2L-113.4 -137.5Z"/><path class="b" d="M-98.3 -129.3L-94.5 -134.1L-99.4 -138.0L-105.0 -131.2L-101.7 -128.7L-99.9 -130.7L-98.3 -129.3Z"/><path class="b" d="M-98.0 -125.9L-94.6 -123.4L-89.7 -130.2L-94.5 -134.1L-98.3 -129.3L-98.5 -129.1L-96.6 -127.7L-98.0 -125.9Z"/><path class="b" d="M-87.8 -118.3L-86.3 -120.8L-83.2 -125.1L-89.7 -130.2L-94.6 -123.4L-93.3 -122.5L-93.4 -122.3L-87.8 -118.3Z"/><path class="b" d="M-82.5 -117.4L-82.3 -117.7L-79.1 -121.7L-83.2 -125.1L-86.3 -120.8L-87.8 -118.3L-86.5 -117.4L-85.2 -119.5L-82.5 -117.4Z"/><path class="b" d="M-89.9 -114.7L-91.4 -112.2L-87.6 -109.4L-85.9 -112.0L-89.9 -114.7Z"/><path class="b" d="M-78.1 -114.0L-77.2 -115.1L-76.6 -115.9L-74.7 -118.3L-79.1 -121.7L-82.3 -117.7L-82.5 -117.4L-78.1 -114.0Z"/><path class="b" d="M-85.8 -108.1L-83.9 -106.7L-83.1 -107.7L-81.7 -109.4L-83.6 -110.9L-85.8 -108.1Z"/><path class="b" d="M-96.5 -85.7L-91.0 -90.8L-92.9 -92.8L-91.7 -94.0L-97.1 -97.0L-102.4 -92.0L-96.5 -85.7Z"/><path class="b" d="M-114.0 -97.8L-108.5 -92.2L-101.2 -99.4L-104.3 -101.2L-105.9 -99.6L-107.2 -100.9L-108.0 -100.1L-109.7 -101.8L-114.0 -97.8Z"/><path class="b" d="M-129.2 -132.4L-130.5 -129.8L-130.8 -129.6L-136.8 -123.4L-119.6 -105.7L-118.6 -106.6L-115.7 -109.4L-115.8 -109.5L-111.2 -113.7L-129.2 -132.4Z"/><path class="b" d="M-113.7 -145.6L-111.9 -147.9L-116.6 -151.6L-120.2 -146.9L-122.3 -144.2L-121.5 -143.6L-118.9 -141.6L-115.0 -146.7L-113.7 -145.6Z"/><path class="b" d="M-122.1 -149.7L-120.5 -148.5L-121.2 -147.7L-120.2 -146.9L-116.6 -151.6L-121.5 -155.4L-124.5 -151.6L-122.1 -149.7Z"/><path class="b" d="M-130.8 -129.6L-130.5 -129.8L-128.5 -133.9L-121.5 -143.6L-124.5 -145.8L-125.3 -146.5L-127.3 -148.0L-131.9 -142.2L-131.9 -142.1L-129.5 -140.6L-135.1 -132.6L-130.8 -129.6Z"/><path class="b" d="M-118.9 -141.6L-117.8 -140.8L-113.7 -145.6L-115.0 -146.7L-118.9 -141.6Z"/><path class="b" d="M-83.5 -89.3L-84.0 -88.4L-81.6 -86.8L-81.5 -86.9L-80.9 -87.8L-83.5 -89.3Z"/><path class="b" d="M-83.7 -83.5L-81.6 -86.8L-84.0 -88.4L-83.5 -89.3L-84.0 -89.6L-86.2 -87.5L-84.9 -86.2L-85.7 -84.8L-83.7 -83.5Z"/><path class="b" d="M-118.6 -106.6L-119.6 -105.7L-120.3 -105.1L-118.3 -103.1L-117.3 -104.1L-117.3 -105.4L-118.6 -106.6Z"/><path class="b" d="M-127.0 -148.3L-124.6 -146.6L-122.1 -149.7L-124.5 -151.6L-127.0 -148.3Z"/><path class="b" d="M-132.8 -149.2L-134.3 -150.3L-135.6 -148.4L-134.3 -147.4L-132.8 -149.2Z"/><path class="b" d="M-131.4 -151.0L-132.8 -149.2L-134.3 -147.4L-135.9 -145.3L-136.5 -145.3L-137.6 -146.2L-139.9 -143.3L-140.1 -142.9L-140.2 -142.6L-140.3 -142.1L-140.3 -141.6L-140.2 -141.1L-139.8 -139.7L-139.6 -139.9L-137.6 -136.8L-131.9 -142.1L-127.3 -148.0L-131.4 -151.0Z"/><path class="b" d="M-47.7 -113.5L-47.9 -113.2L-50.2 -115.1L-50.4 -114.7L-53.2 -110.8L-47.9 -107.3L-42.2 -112.1L-43.6 -113.4L-44.1 -113.8L-45.7 -111.9L-47.7 -113.5Z"/><path class="b" d="M-33.8 -131.7L-36.8 -128.6L-32.9 -124.6L-36.2 -120.7L-34.4 -118.9L-33.9 -118.6L-25.6 -127.0L-32.2 -133.4L-33.8 -131.7Z"/><path class="b" d="M-46.3 -141.9L-46.4 -142.1L-52.0 -135.3L-41.8 -128.7L-40.9 -130.3L-40.6 -130.0L-40.1 -132.8L-37.9 -135.3L-41.8 -138.7L-46.3 -141.9Z"/><path class="b" d="M-67.6 -98.2L-68.0 -97.6L-67.2 -97.1L-66.8 -97.7L-67.6 -98.2Z"/><path class="ba" d="M-41.3 -115.8L-41.4 -115.9L-43.6 -113.4L-42.2 -112.1L-39.7 -114.3L-41.3 -115.8Z"/><path class="b" d="M-40.9 -130.3L-41.8 -128.7L-45.1 -123.4L-50.2 -115.1L-47.9 -113.2L-47.7 -113.5L-44.1 -118.3L-39.1 -126.1L-39.6 -129.1L-40.6 -130.0L-40.9 -130.3Z"/><path class="ba" d="M-41.3 -115.8L-39.7 -114.3L-36.3 -117.3L-38.4 -119.8L-41.3 -115.8Z"/><path class="b" d="M-35.3 -133.0L-33.8 -131.7L-32.2 -133.4L-33.8 -134.6L-35.3 -133.0Z"/><path class="b" d="M-3.6 -158.2L-9.8 -152.7L-5.1 -148.3L0.9 -154.6L-3.6 -158.2Z"/><path class="ba" d="M-63.8 -135.9L-65.5 -133.8L-57.5 -127.3L-55.8 -129.3L-63.8 -135.9Z"/><path class="b" d="M76.4 -102.2L60.2 -112.8L44.4 -88.6L51.3 -84.0L36.0 -60.5L36.2 -59.2L42.8 -55.4L43.0 -55.3L43.7 -55.4L44.3 -55.8L54.2 -50.6L54.2 -50.0L54.3 -49.5L54.5 -49.0L54.8 -48.9L61.5 -45.1L61.9 -45.1L62.4 -45.2L62.7 -45.5L65.7 -49.7L65.9 -49.5L67.0 -51.1L69.2 -54.5L75.7 -50.5L79.5 -56.1L81.0 -55.2L85.1 -61.5L85.5 -61.2L101.9 -86.0L112.1 -101.3L117.0 -108.6L125.9 -122.0L129.2 -127.1L119.7 -132.9L120.4 -133.9L117.1 -136.1L131.1 -154.8L126.8 -158.1L129.0 -161.3L124.3 -164.8L122.0 -161.8L117.8 -164.9L103.5 -152.1L107.1 -149.1L107.6 -148.8L101.2 -139.2L100.9 -138.9L101.6 -138.4L77.2 -101.6L76.3 -102.2L76.4 -102.2Z"/><path class="ba" d="M69.3 -41.0L83.7 -31.0L92.7 -24.8L97.4 -31.7L107.1 -25.0L105.1 -22.1L120.1 -11.6L128.3 -5.8L128.9 -6.7L130.1 -5.9L134.0 -13.8L134.4 -14.7L132.1 -16.3L132.4 -16.6L125.3 -21.5L125.0 -21.3L120.6 -24.3L120.8 -24.6L113.7 -29.5L113.7 -29.6L113.5 -29.2L111.2 -30.8L131.6 -60.8L121.8 -67.4L98.6 -33.6L96.1 -35.3L96.4 -35.7L89.3 -40.5L89.1 -40.2L84.7 -43.2L84.9 -43.5L77.8 -48.3L77.6 -48.0L75.2 -49.6L73.4 -47.0L69.3 -41.0Z"/><path class="b" d="M157.8 -175.7L124.9 -132.7L129.9 -128.0L129.2 -127.1L125.9 -122.0L146.9 -108.4L150.7 -114.1L151.1 -113.9L151.8 -114.9L151.4 -115.2L151.9 -115.9L130.8 -129.5L129.8 -130.6L139.5 -143.8L157.1 -132.3L162.0 -139.5L144.4 -151.1L155.6 -166.0L166.4 -158.1L171.8 -165.2L157.8 -175.7Z"/><path class="b" d="M149.0 -89.0L157.5 -85.7L159.2 -90.7L194.0 -75.7L204.4 -89.5L191.4 -98.9L183.9 -102.3L182.7 -99.4L173.4 -101.7L164.1 -104.0L169.4 -118.9L159.7 -122.3L149.0 -89.0Z"/><path class="b" d="M145.3 115.1L144.1 114.9L135.1 113.2L134.9 114.4L130.0 138.6L131.8 141.3L149.1 144.8L154.2 133.2L147.3 131.4L146.7 134.2L145.7 134.0L145.6 134.4L144.5 134.2L144.5 134.0L144.4 133.6L144.3 133.2L144.2 132.9L144.0 132.6L143.9 132.4L143.8 132.2L143.5 131.8L141.8 130.7L143.7 121.2L143.3 121.1L145.3 115.1Z"/><path class="b" d="M53.4 74.3L52.1 75.5L62.0 85.6L63.1 84.2L53.4 74.3Z"/><path class="b" d="M83.9 91.8L80.2 84.8L79.8 84.1L74.5 89.3L74.8 89.7L73.0 91.5L73.1 94.6L83.9 105.5L86.8 108.6L91.0 105.4L90.7 104.7L86.0 95.9L84.8 93.6L81.5 96.6L81.2 96.4L81.7 95.7L81.0 95.0L81.3 94.7L81.8 95.3L82.4 94.7L81.6 93.9L83.9 91.8Z"/><path class="b" d="M86.7 91.7L85.9 90.2L89.1 87.5L88.7 86.7L88.1 85.7L85.2 80.6L80.2 84.8L83.9 91.8L84.8 93.6L86.0 95.9L88.0 93.8L86.7 91.7Z"/><path class="b" d="M109.4 113.8L106.4 117.7L103.2 114.3L105.5 110.8L107.0 108.4L107.2 108.2L104.5 106.1L95.8 118.0L105.6 128.1L115.0 113.5L115.8 113.6L116.4 110.7L111.2 109.6L110.0 111.3L110.8 112.0L109.4 113.8Z"/><path class="b" d="M108.3 84.2L106.9 85.9L103.6 89.8L100.8 93.2L103.6 95.3L106.2 97.2L107.6 98.3L109.3 99.6L110.3 94.8L111.1 90.7L111.4 89.0L111.6 88.2L113.5 88.5L120.5 89.8L120.6 89.3L123.4 75.1L116.9 73.7L111.7 80.0L115.0 82.5L114.5 85.5L111.1 84.7L110.4 84.7L108.3 84.2Z"/><path class="b" d="M63.0 68.3L73.8 80.2L82.5 72.2L79.0 68.3L76.7 70.3L73.6 66.7L75.8 64.7L74.0 62.7L72.0 60.4L69.6 62.6L70.6 63.6L66.5 67.3L65.5 66.2L63.0 68.3Z"/><path class="b" d="M61.4 66.5L59.3 68.3L53.6 73.4L60.5 80.6L60.0 81.1L63.3 84.4L64.5 85.6L67.6 85.8L73.8 80.2L63.0 68.3L61.4 66.5Z"/><path class="b" d="M91.0 90.5L90.8 90.6L88.0 93.8L86.0 95.9L90.7 104.7L92.8 102.8L93.7 101.8L95.7 99.4L97.9 96.7L95.7 94.9L93.8 93.7L91.0 90.5Z"/><path class="b" d="M91.3 73.9L95.4 79.0L95.6 79.2L96.0 79.7L96.8 80.7L98.2 82.5L101.6 81.0L106.5 74.0L108.0 75.3L110.7 78.4L112.1 79.6L116.9 73.7L111.2 69.0L108.3 66.8L103.9 71.4L99.7 67.1L99.3 66.8L91.3 73.9Z"/><path class="b" d="M91.3 73.9L88.7 76.3L84.8 79.9L85.2 80.6L88.1 85.7L88.7 86.7L89.1 87.5L89.7 88.6L90.8 90.6L91.0 90.5L91.3 90.1L95.3 85.7L97.6 83.1L98.2 82.5L96.8 80.7L96.0 79.7L95.6 79.2L95.4 79.0L91.3 73.9Z"/><path class="b" d="M95.8 118.0L104.5 106.1L105.4 104.9L100.5 101.5L101.0 100.8L96.9 97.9L95.7 99.4L93.7 101.8L92.8 102.8L90.7 104.7L91.0 105.4L86.8 108.6L87.2 109.1L89.3 111.3L92.1 114.2L93.4 115.6L95.8 118.0Z"/><path class="b" d="M159.2 133.6L159.8 131.4L160.1 130.4L156.0 129.1L149.1 144.8L155.5 146.1L157.9 138.1L155.1 137.5L157.1 133.0L159.2 133.6Z"/><path class="b" d="M109.6 109.3L111.2 109.6L116.4 110.7L120.5 89.8L113.5 88.5L113.1 91.0L111.1 90.7L110.3 94.8L109.3 99.6L105.8 104.4L110.4 105.2L109.6 109.3Z"/><path class="b" d="M110.0 111.3L111.2 109.6L109.6 109.3L107.5 108.9L110.0 111.3Z"/><path class="b" d="M166.1 63.6L168.3 54.8L151.3 51.2L147.8 50.4L143.6 71.2L143.6 71.2L157.2 74.0L163.1 75.2L164.1 71.3L152.8 68.9L153.0 67.6L153.7 63.9L154.3 61.0L166.1 63.6Z"/><path class="b" d="M157.2 74.0L143.6 71.2L142.0 79.4L144.1 80.2L151.3 82.6L155.1 83.9L156.5 77.2L157.2 74.0Z"/><path class="b" d="M151.3 82.6L144.1 80.2L142.0 79.4L139.4 91.9L149.2 92.8L151.3 82.6Z"/><path class="b" d="M148.3 105.7L154.8 107.3L155.7 103.8L147.0 102.4L137.7 100.3L135.1 113.2L145.3 115.1L146.5 111.2L143.7 110.6L144.6 105.8L145.5 106.0L146.2 105.5L146.3 105.0L148.3 105.7Z"/><path class="b" d="M125.0 66.3L122.3 64.0L116.0 58.8L108.3 66.8L111.2 69.0L116.9 73.7L123.4 75.1L125.2 66.4L125.0 66.3Z"/><path class="b" d="M88.0 93.8L90.8 90.6L89.7 88.6L86.7 91.7L88.0 93.8Z"/><path class="b" d="M110.0 111.3L107.5 108.9L107.0 108.4L105.5 110.8L109.4 113.8L110.8 112.0L110.0 111.3Z"/><path class="b" d="M115.8 113.6L115.0 113.5L105.6 128.1L109.2 131.8L112.5 130.8L115.8 113.6Z"/><path class="b" d="M137.7 100.3L147.0 102.4L155.7 103.8L158.3 93.5L153.2 93.1L149.2 92.8L139.4 91.9L137.7 100.3Z"/><path class="b" d="M150.4 116.4L149.4 121.5L151.6 121.9L152.7 117.0L150.4 116.4Z"/><path class="b" d="M91.0 90.5L93.8 93.7L95.7 94.9L97.9 96.7L98.2 96.3L96.1 94.6L94.2 93.3L91.3 90.1L91.0 90.5Z"/><path class="ba" d="M13.2 33.2L18.8 38.9L24.6 33.3L22.5 31.1L23.6 30.0L25.8 31.5L31.5 27.3L29.0 24.0L24.6 27.2L22.3 26.0L21.5 25.2L19.0 27.6L13.2 33.2Z"/><path class="b" d="M23.6 -25.8L23.0 -26.2L15.5 -31.1L12.6 -26.3L6.7 -16.2L16.9 -9.7L23.2 -5.6L28.9 -1.9L32.3 0.3L41.0 5.9L41.4 1.7L41.5 0.1L41.7 -1.7L41.9 -12.9L42.0 -13.2L42.0 -13.7L37.5 -16.6L23.6 -25.8Z"/><path class="b" d="M-24.2 -18.4L-30.9 -12.0L-19.9 -0.6L-13.1 -7.2L-24.2 -18.4Z"/><path class="b" d="M-9.1 -7.1L-11.1 -9.2L-13.1 -7.2L-19.9 -0.6L-18.1 1.2L-12.9 6.5L-5.0 -1.2L-4.2 -2.0L-9.1 -7.1Z"/><path class="b" d="M-5.0 -1.2L-12.9 6.5L-7.4 12.2L-1.8 6.9L0.6 4.6L-5.0 -1.2Z"/><path class="b" d="M-1.8 6.9L-7.4 12.2L-1.4 18.2L4.0 13.0L-1.8 6.9Z"/><path class="b" d="M1.7 21.3L6.0 25.8L13.0 19.0L13.2 18.8L15.2 16.8L19.8 12.4L17.3 9.9L10.9 16.4L8.9 14.4L1.7 21.3Z"/><path class="b" d="M13.0 19.0L6.0 25.8L13.2 33.2L19.0 27.6L19.7 26.9L20.2 26.4L13.0 19.0Z"/><path class="b" d="M2.1 -8.0L-1.2 -4.8L4.2 1.1L7.5 -2.1L2.1 -8.0Z"/><path class="ba" d="M21.5 25.2L22.3 26.0L24.0 26.9L25.4 25.5L23.4 23.4L21.5 25.2Z"/><path class="b" d="M41.4 1.7L41.0 5.9L41.3 6.0L41.3 6.0L48.7 10.7L49.0 1.5L47.8 1.4L47.7 3.0L41.4 1.7Z"/><path class="b" d="M20.6 11.6L19.8 12.4L15.2 16.8L16.5 18.2L17.4 18.2L22.3 13.3L20.6 11.6Z"/><path class="ba" d="M35.5 26.1L26.3 35.0L39.5 48.5L48.1 40.3L48.8 39.6L35.5 26.1Z"/><path class="ba" d="M55.0 14.7L50.4 11.8L43.5 18.4L47.3 22.2L55.0 14.7Z"/><path class="ba" d="M53.6 35.0L63.3 25.7L66.8 22.3L65.9 21.7L62.3 19.4L53.2 28.1L54.8 29.7L51.6 32.9L53.6 35.0Z"/><path class="b" d="M71.9 25.5L70.2 24.5L67.2 22.5L66.8 22.3L63.3 25.7L66.9 29.9L71.9 25.5Z"/><path class="b" d="M48.1 40.3L39.5 48.5L39.3 48.7L51.4 61.1L51.9 60.7L60.8 53.4L48.1 40.3Z"/><path class="b" d="M76.9 40.2L81.1 36.7L75.7 31.0L71.9 34.6L76.9 40.2Z"/><path class="b" d="M85.4 33.2L89.9 29.5L81.3 20.4L77.0 24.0L85.4 33.2Z"/><path class="b" d="M51.9 60.7L51.4 61.1L45.4 66.1L53.0 73.9L53.6 73.4L59.3 68.3L51.9 60.7Z"/><path class="b" d="M84.3 70.6L88.3 66.9L86.6 64.9L83.9 61.8L79.7 65.5L84.3 70.6Z"/><path class="b" d="M103.3 29.6L103.0 29.9L94.7 37.6L97.4 40.7L100.4 44.0L103.3 41.4L102.1 40.0L100.6 38.2L101.7 37.1L103.3 38.9L103.3 38.9L103.7 39.0L106.8 36.4L114.1 44.6L116.5 42.4L116.0 41.6L112.1 36.0L116.7 33.6L123.3 26.7L124.5 25.4L123.7 24.0L123.4 23.5L119.1 26.6L117.2 24.3L106.3 32.9L103.3 29.6Z"/><path class="b" d="M84.5 18.1L81.3 20.4L89.9 29.5L92.8 27.1L84.5 18.1Z"/><path class="ba" d="M95.4 7.5L100.7 2.4L104.3 -1.4L103.0 -1.9L96.8 -5.1L93.6 0.8L91.9 2.4L91.4 3.0L95.4 7.5Z"/><path class="ba" d="M70.2 19.0L70.2 21.9L70.2 24.5L71.9 25.5L73.8 26.7L76.8 24.1L72.8 21.6L72.7 19.1L70.2 19.0Z"/><path class="b" d="M90.4 -0.7L92.3 0.4L91.6 1.4L91.5 2.1L91.9 2.4L93.6 0.8L96.8 -5.1L88.8 -9.3L86.0 -3.1L86.2 -3.0L86.2 -3.0L90.3 -0.7L90.4 -0.7Z"/><path class="b" d="M80.6 -2.3L85.3 -1.5L86.0 -3.1L88.8 -9.3L70.1 -19.1L70.1 -13.1L70.1 -12.1L70.1 -11.0L71.5 -10.3L71.8 -10.4L74.0 -10.4L77.1 -8.7L77.9 -8.7L77.8 -7.2L80.7 -7.0L80.6 -2.3Z"/><path class="b" d="M59.3 12.7L59.2 17.0L59.2 17.4L62.3 19.4L65.9 21.7L67.9 18.8L66.7 17.9L66.6 16.4L65.0 16.3L65.3 13.2L59.3 12.7Z"/><path class="b" d="M67.2 22.5L70.2 24.5L70.2 21.9L68.5 20.7L67.2 22.5Z"/><path class="b" d="M59.9 -7.1L60.2 -14.3L60.5 -24.1L51.2 -29.0L49.8 -24.7L49.7 -22.3L58.6 -17.6L58.3 -17.3L58.3 -16.8L58.2 -14.3L56.9 -14.2L56.8 -14.2L56.4 -7.2L59.9 -7.1Z"/><path class="b" d="M57.9 16.6L59.2 17.4L59.2 17.0L59.3 12.7L59.4 11.2L57.7 11.1L57.7 13.9L58.0 13.9L57.9 16.6Z"/><path class="b" d="M46.2 -13.1L42.0 -13.2L41.9 -12.9L41.7 -1.7L45.9 -1.6L46.2 -13.1Z"/><path class="b" d="M53.4 74.3L60.0 81.1L60.5 80.6L53.6 73.4L53.0 73.9L53.4 74.3Z"/><path class="b" d="M104.3 -1.4L100.7 2.4L103.1 4.0L104.3 5.0L105.0 5.8L105.6 6.6L106.8 8.2L97.5 16.3L98.1 17.0L97.7 17.4L100.4 20.6L111.3 11.1L112.8 9.8L111.6 9.2L115.0 2.7L104.3 -1.4Z"/><path class="b" d="M85.3 -1.5L85.3 -1.5L80.6 -2.3L78.7 1.4L82.6 3.6L84.3 0.4L85.3 -1.5Z"/><path class="b" d="M94.3 62.6L102.3 55.2L101.9 54.6L98.9 51.2L102.9 49.1L102.0 47.4L100.4 44.0L97.4 40.7L91.5 46.6L88.5 43.0L81.8 48.7L86.5 54.3L88.0 56.2L83.1 60.9L83.9 61.8L85.5 63.7L90.7 59.0L93.7 62.0L94.3 62.6Z"/><path class="b" d="M73.0 57.0L70.7 59.0L72.0 60.4L74.0 62.7L76.3 60.6L73.0 57.0Z"/><path class="b" d="M83.1 60.9L85.3 58.8L88.0 56.2L86.5 54.3L85.0 52.6L83.4 54.0L80.1 50.1L76.3 53.5L76.2 53.6L82.8 61.1L83.1 60.9Z"/><path class="b" d="M103.3 38.9L103.3 38.9L101.7 37.1L100.6 38.2L102.1 40.0L103.3 38.9Z"/><path class="b" d="M134.0 -13.8L130.1 -5.9L129.7 -4.9L136.9 0.2L147.4 -14.9L138.8 -18.7L134.9 -13.2L134.0 -13.8Z"/><path class="b" d="M126.8 23.2L127.5 22.7L130.1 25.0L133.3 22.3L134.0 22.4L136.9 11.2L122.6 5.7L120.0 12.5L119.7 12.4L119.4 13.5L128.1 16.9L126.4 21.0L126.8 23.2Z"/><path class="b" d="M116.8 14.5L111.8 20.6L111.0 19.9L108.2 23.4L110.9 25.0L113.0 23.3L118.5 15.9L116.8 14.5Z"/><path class="b" d="M123.3 26.7L116.7 33.6L112.1 36.0L116.0 41.6L120.5 37.5L127.2 31.4L123.3 26.7Z"/><path class="b" d="M118.8 12.0L119.7 12.4L120.0 12.5L122.6 5.7L115.0 2.7L111.6 9.2L112.8 9.7L118.8 12.0Z"/><path class="b" d="M112.3 10.2L111.3 11.1L112.4 12.2L113.5 11.3L112.3 10.2Z"/><path class="b" d="M94.2 8.8L90.0 12.8L93.5 16.6L97.8 12.6L94.2 8.8Z"/><path class="b" d="M151.3 51.2L168.3 54.8L169.2 51.5L169.2 51.1L161.5 49.6L162.0 47.4L158.1 46.5L159.8 38.6L150.6 36.6L149.6 41.7L153.2 42.4L151.3 51.2Z"/><path class="b" d="M104.7 40.1L103.9 40.8L106.4 44.6L108.9 48.4L109.3 49.0L114.1 44.6L106.8 36.4L103.7 39.0L104.7 40.1Z"/><path class="b" d="M103.3 38.9L102.1 40.0L103.3 41.4L103.9 40.8L104.7 40.1L103.7 39.0L103.3 38.9Z"/><path class="b" d="M125.0 66.3L125.2 62.6L124.0 61.8L122.3 64.0L125.0 66.3Z"/><path class="b" d="M108.3 66.8L116.0 58.8L118.0 56.7L114.5 53.7L99.7 67.1L103.9 71.4L108.3 66.8Z"/><path class="b" d="M118.1 50.4L127.0 57.6L129.9 43.2L127.5 42.0L118.1 50.4Z"/><path class="b" d="M98.2 82.5L102.0 81.3L106.6 74.7L107.7 75.6L110.3 78.8L111.7 80.0L112.1 79.6L110.7 78.4L108.0 75.3L106.5 74.0L101.6 81.0L98.2 82.5Z"/><path class="b" d="M-26.7 -5.7L-20.9 0.3L-19.9 -0.6L-25.7 -6.7L-26.7 -5.7Z"/><path class="b" d="M-5.4 -63.3L-8.7 -57.8L-5.9 -55.7L-2.4 -60.9L-2.3 -61.2L-5.4 -63.3Z"/><path class="b" d="M-41.3 -77.7L-48.5 -83.7L-48.9 -83.9L-54.0 -76.2L-50.1 -72.9L-50.9 -71.8L-48.4 -69.3L-41.3 -77.7Z"/><path class="b" d="M-41.7 -70.7L-40.8 -70.0L-37.5 -74.4L-39.2 -75.9L-42.8 -71.6L-41.7 -70.7Z"/><path class="ba" d="M13.8 -86.1L13.2 -84.9L7.3 -78.0L7.4 -77.4L14.4 -72.7L15.1 -74.5L19.5 -82.1L13.8 -86.1Z"/><path class="b" d="M-28.6 -102.1L7.4 -77.4L7.3 -78.0L13.2 -84.9L13.8 -86.1L12.3 -87.2L12.6 -87.6L5.4 -92.5L5.1 -92.1L0.6 -95.1L0.9 -95.5L-6.3 -100.4L-6.5 -100.0L-10.9 -103.0L-10.7 -103.5L-17.8 -108.3L-18.1 -107.9L-22.6 -110.9L-28.6 -102.1Z"/><path class="b" d="M-25.8 -64.0L-26.0 -63.6L-29.7 -57.7L-31.2 -55.4L-29.3 -54.0L-23.0 -49.3L-21.3 -51.8L-17.6 -56.9L-19.2 -58.1L-21.9 -54.3L-27.0 -58.1L-24.0 -62.8L-25.8 -64.0Z"/><path class="b" d="M-15.7 -59.6L-10.5 -66.8L-20.0 -73.2L-24.3 -66.2L-24.7 -65.7L-16.4 -60.0L-15.7 -59.6Z"/><path class="b" d="M-11.5 -53.3L-8.7 -57.8L-5.4 -63.3L-10.5 -66.8L-15.7 -59.6L-16.1 -59.0L-12.1 -56.4L-13.2 -54.5L-11.5 -53.3Z"/><path class="b" d="M-21.3 -51.8L-23.0 -49.3L-14.3 -42.8L-13.3 -44.2L-10.8 -48.0L-13.5 -50.1L-13.6 -50.1L-15.2 -47.5L-21.3 -51.8Z"/><path class="b" d="M12.6 -26.3L15.5 -31.1L18.0 -35.2L18.2 -35.6L18.2 -35.6L18.4 -35.9L-7.4 -53.5L-7.8 -52.5L-10.8 -48.0L-13.3 -44.2L-6.2 -39.3L-6.7 -38.4L4.8 -30.4L5.5 -31.3L12.6 -26.3Z"/><path class="b" d="M-54.0 -55.5L-61.8 -60.0L-66.6 -52.8L-65.3 -47.7L-55.5 -37.4L-52.3 -40.5L-50.1 -42.7L-55.6 -48.3L-55.5 -48.5L-57.1 -50.1L-54.0 -55.5Z"/><path class="ba" d="M-47.0 -45.7L-50.1 -42.7L-52.3 -40.5L-47.9 -36.0L-48.7 -35.1L-45.6 -31.9L-39.5 -37.8L-47.0 -45.7Z"/><path class="b" d="M-16.7 -38.9L-14.2 -42.7L-14.3 -42.8L-23.0 -49.3L-29.3 -54.0L-34.3 -47.5L-27.5 -42.3L-25.3 -45.4L-16.7 -38.9Z"/><path class="b" d="M-35.7 -41.0L-38.2 -36.1L-40.6 -32.3L-45.7 -27.4L-38.0 -19.3L-30.0 -28.1L-32.7 -30.8L-34.9 -28.6L-36.3 -30.0L-36.9 -32.5L-32.1 -37.1L-35.7 -41.0Z"/><path class="b" d="M-16.0 -32.4L-19.0 -35.5L-21.7 -31.6L-19.4 -29.2L-16.0 -32.4Z"/><path class="b" d="M-0.6 -13.1L-3.4 -16.6L-5.6 -14.4L-8.0 -12.1L-6.0 -10.0L-5.0 -9.0L-0.6 -13.1Z"/><path class="ba" d="M-43.5 -49.2L-46.0 -46.7L-41.9 -43.5L-40.0 -46.6L-43.5 -49.2Z"/><path class="b" d="M-30.6 -68.8L-33.6 -64.7L-40.8 -70.0L-41.7 -70.7L-45.2 -66.2L-41.7 -63.5L-33.7 -57.3L-33.6 -57.2L-30.6 -62.3L-27.3 -68.0L-23.0 -75.4L-30.3 -80.2L-35.8 -72.9L-30.6 -68.8Z"/><path class="b" d="M-5.6 -14.4L-3.4 -16.6L-1.9 -18.0L-12.8 -29.2L-16.2 -26.0L-16.3 -25.9L-5.6 -14.4Z"/><path class="b" d="M-9.1 -7.1L-6.0 -10.0L-8.0 -12.1L-11.1 -9.2L-9.1 -7.1Z"/><path class="b" d="M-19.4 -29.2L-16.2 -26.0L-12.8 -29.2L-16.0 -32.4L-19.4 -29.2Z"/><path class="b" d="M-19.4 -29.2L-21.7 -31.6L-24.1 -27.9L-28.7 -29.6L-30.0 -28.1L-38.0 -19.3L-30.9 -12.0L-24.2 -18.4L-16.3 -25.9L-16.2 -26.0L-19.4 -29.2Z"/><path class="b" d="M-48.5 -83.7L-41.3 -77.7L-39.2 -75.9L-37.5 -74.4L-35.8 -72.9L-35.0 -73.9L-30.3 -80.2L-30.2 -80.3L-42.7 -88.8L-45.2 -87.5L-48.5 -83.7Z"/><path class="b" d="M21.8 -33.6L23.7 -37.4L33.0 -32.5L31.8 -30.4L37.6 -27.3L38.3 -26.9L39.2 -28.5L42.5 -26.9L42.9 -33.4L23.1 -43.7L18.4 -35.9L18.2 -35.6L21.8 -33.6Z"/><path class="b" d="M-41.7 -63.5L-45.2 -66.2L-48.4 -69.3L-50.9 -71.8L-50.1 -72.9L-54.0 -76.2L-63.7 -61.2L-61.8 -60.0L-54.0 -55.5L-50.7 -53.5L-43.5 -49.2L-40.0 -46.6L-38.1 -45.3L-34.5 -50.7L-34.5 -52.0L-31.7 -55.8L-31.8 -55.9L-33.7 -57.3L-36.4 -53.3L-39.6 -55.9L-41.1 -53.7L-49.7 -59.0L-48.0 -61.6L-53.1 -64.9L-51.6 -67.1L-47.4 -62.7L-47.9 -61.8L-45.9 -60.4L-45.4 -61.1L-44.2 -60.2L-41.7 -63.5Z"/><path class="b" d="M-53.1 -64.9L-48.0 -61.6L-49.7 -59.0L-41.1 -53.7L-39.6 -55.9L-36.4 -53.3L-33.7 -57.3L-41.7 -63.5L-44.2 -60.2L-45.4 -61.1L-45.9 -60.4L-47.9 -61.8L-47.4 -62.7L-51.6 -67.1L-53.1 -64.9Z"/><path class="b" d="M-23.0 -75.4L-27.1 -68.3L-27.3 -68.0L-27.4 -67.8L-24.4 -66.1L-24.3 -66.2L-20.0 -73.2L-23.0 -75.4Z"/><path class="b" d="M49.6 -19.0L49.7 -22.3L49.8 -24.7L51.2 -29.0L42.9 -33.4L42.5 -26.9L42.1 -17.4L46.0 -17.3L46.0 -18.9L49.6 -19.0Z"/><path class="b" d="M117.0 -108.6L112.1 -101.3L140.9 -82.4L145.8 -89.7L117.0 -108.6Z"/><path class="b" d="M83.7 -31.0L69.3 -41.0L69.2 -40.9L83.7 -31.0Z"/><path class="b" d="M19.5 -82.1L15.1 -74.5L14.4 -72.7L24.8 -65.6L30.8 -74.4L28.4 -76.1L28.7 -76.5L21.6 -81.3L21.3 -80.9L19.5 -82.1Z"/><path class="b" d="M70.1 -7.6L70.1 -11.0L70.1 -12.1L70.1 -13.1L70.1 -19.1L60.5 -24.1L60.2 -14.3L68.8 -9.7L68.8 -8.1L70.1 -7.6Z"/><path class="b" d="M54.8 -48.9L54.5 -49.0L54.3 -49.5L54.2 -50.0L54.2 -50.6L44.3 -55.8L43.7 -55.4L43.0 -55.3L42.8 -54.9L54.5 -48.4L54.8 -48.9Z"/><path class="b" d="M42.0 -13.7L42.1 -17.4L42.5 -26.9L39.2 -28.5L38.3 -26.9L37.6 -27.3L37.5 -16.6L42.0 -13.7Z"/><path class="b" d="M49.4 -13.1L49.6 -19.0L46.0 -18.9L46.0 -17.3L42.1 -17.4L42.0 -13.7L42.0 -13.2L46.2 -13.1L49.4 -13.1Z"/><path class="b" d="M45.9 -1.6L41.7 -1.7L41.5 0.1L41.4 1.7L47.7 3.0L47.8 1.4L49.0 1.5L49.1 -1.5L45.9 -1.6Z"/><path class="b" d="M58.3 -16.8L57.0 -16.9L56.9 -14.2L58.2 -14.3L58.3 -16.8Z"/><path class="b" d="M84.3 0.4L88.5 2.7L90.4 -0.7L86.2 -3.0L84.3 0.4Z"/><path class="b" d="M26.6 -30.4L21.8 -33.6L18.2 -35.6L15.5 -31.1L23.6 -25.8L26.6 -30.4Z"/><path class="b" d="M75.7 -50.5L69.2 -54.5L67.0 -51.1L73.4 -47.0L75.2 -49.6L75.7 -50.5Z"/><path class="b" d="M81.0 -55.2L79.5 -56.1L75.7 -50.5L77.3 -49.6L81.0 -55.2Z"/><path class="ba" d="M138.8 -18.7L147.4 -14.9L148.6 -16.6L140.9 -21.8L138.8 -18.7Z"/><path class="b" d="M146.5 -25.0L153.7 -21.6L157.9 -27.2L149.5 -30.5L149.1 -29.7L146.5 -25.0Z"/><path class="b" d="M149.7 -32.7L148.5 -30.9L149.5 -30.5L157.9 -27.2L166.4 -38.8L157.0 -42.8L149.7 -32.7Z"/><path class="b" d="M120.1 -11.6L105.1 -22.1L105.0 -22.0L120.1 -11.6Z"/><path class="b" d="M149.7 -32.7L146.7 -33.5L146.0 -31.9L148.5 -30.9L149.7 -32.7Z"/><path class="b" d="M146.5 -25.0L149.1 -29.7L143.3 -32.4L141.7 -29.4L143.6 -28.4L142.9 -27.0L146.5 -25.0Z"/><path class="b" d="M18.9 -95.5L19.7 -96.9L19.9 -96.7L22.1 -100.0L9.6 -108.6L8.9 -109.1L8.4 -108.2L5.8 -104.5L18.9 -95.5Z"/><path class="b" d="M31.3 -140.8L36.6 -148.8L31.5 -152.3L33.2 -154.9L28.4 -158.2L26.6 -155.6L22.5 -158.3L15.5 -151.3L31.3 -140.8Z"/><path class="b" d="M19.9 -124.0L25.5 -132.2L24.1 -133.1L25.0 -134.5L23.7 -135.4L22.7 -134.0L17.0 -137.8L18.8 -140.4L13.9 -143.7L12.1 -141.0L7.9 -143.8L0.8 -136.8L19.9 -124.0Z"/><path class="b" d="M15.2 -116.8L14.0 -117.6L14.7 -118.6L12.3 -120.2L11.5 -119.1L8.2 -121.3L7.2 -119.8L2.4 -123.0L4.2 -125.7L-0.7 -129.0L-2.6 -126.3L-6.8 -129.2L-15.9 -120.1L5.8 -104.5L8.9 -109.1L9.6 -108.6L15.2 -116.8Z"/><path class="b" d="M65.3 -170.3L55.9 -155.8L69.6 -146.4L75.2 -154.4L77.1 -153.1L78.9 -155.8L77.0 -157.1L79.5 -160.7L65.3 -170.3Z"/><path class="b" d="M47.4 -124.2L47.1 -123.8L42.6 -126.9L42.9 -127.3L35.9 -132.1L35.6 -131.7L33.3 -133.3L27.2 -124.6L50.6 -108.4L56.6 -117.2L54.2 -118.9L54.4 -119.4L47.4 -124.2Z"/><path class="b" d="M38.3 -89.0L29.4 -95.1L26.4 -90.6L35.2 -84.5L38.3 -89.0Z"/><path class="b" d="M107.6 -148.8L107.1 -149.1L100.9 -139.4L101.2 -139.2L107.6 -148.8Z"/><path class="b" d="M-162.0 131.8L-161.4 152.3L-150.3 152.2L-150.5 131.3L-144.5 131.2L-135.5 131.0L-128.8 130.9L-128.9 126.7L-124.5 126.5L-124.4 130.8L-122.0 130.8L-114.0 130.6L-114.1 126.4L-114.4 120.2L-114.4 119.9L-153.9 121.2L-164.2 121.6L-178.9 122.1L-195.6 122.6L-194.6 129.2L-197.9 128.9L-203.3 127.3L-206.7 126.3L-207.7 126.0L-209.6 125.5L-208.0 134.6L-198.9 132.6L-193.0 132.5L-173.0 132.0L-162.0 131.8Z"/><path class="b" d="M-7.9 104.1L-8.6 108.0L-19.9 106.0L-30.7 104.1L-33.2 103.6L-33.0 102.3L-41.6 100.9L-41.7 101.2L-43.5 113.5L-34.9 114.9L-37.4 127.3L-37.6 128.1L-39.5 127.8L-40.2 132.8L-40.2 133.5L-40.3 133.5L-40.7 136.2L-27.8 138.4L-26.8 131.8L-26.4 129.7L-30.6 128.9L-28.4 117.4L-22.5 118.4L-23.3 123.5L-22.5 123.7L-15.1 125.2L-13.3 116.0L-12.6 112.7L-9.7 113.2L-10.5 117.5L-11.3 121.8L-5.2 122.9L-4.9 121.3L-4.3 121.4L6.2 123.2L5.4 127.9L2.3 144.7L6.2 145.3L8.7 145.8L15.5 147.1L17.4 136.8L18.9 129.0L24.8 129.8L25.7 128.6L25.7 128.2L26.0 126.5L22.5 126.0L22.3 125.9L19.5 125.5L19.8 123.5L21.8 112.8L9.5 110.7L10.1 107.2L6.8 106.6L-7.9 104.1Z"/><path class="b" d="M57.9 177.7L61.4 178.3L59.2 191.3L56.6 190.9L56.5 191.4L55.0 191.1L54.8 192.2L52.5 191.8L50.2 205.0L80.2 210.4L81.7 202.1L73.8 200.7L76.9 182.7L83.8 183.9L83.2 187.2L96.7 189.7L99.5 173.6L85.9 171.2L85.4 174.6L78.6 173.3L81.8 155.5L89.6 156.8L91.1 148.4L61.1 143.2L58.6 156.6L59.1 156.7L58.9 157.5L57.6 158.0L55.4 171.0L54.9 170.9L53.8 176.9L55.8 177.3L57.9 177.7Z"/><path class="b" d="M-134.2 64.7L-134.5 58.8L-134.6 57.1L-145.5 57.6L-156.3 58.1L-157.5 57.3L-185.8 57.1L-190.6 57.0L-190.7 60.2L-190.9 68.4L-182.0 68.7L-182.1 71.1L-169.0 71.2L-169.0 75.7L-190.0 75.2L-190.1 89.2L-184.2 89.5L-179.9 89.7L-176.7 89.8L-168.8 90.0L-162.7 90.1L-147.8 90.2L-146.2 90.3L-146.3 62.9L-140.6 63.0L-140.5 63.4L-140.4 63.8L-140.3 64.0L-140.1 64.2L-139.8 64.3L-139.5 64.5L-134.2 64.7Z"/><path class="b" d="M-103.0 144.3L-102.1 151.7L-93.3 151.6L-96.2 135.5L-99.1 135.7L-101.3 135.8L-104.0 136.0L-103.8 137.6L-103.0 144.3Z"/><path class="b" d="M-93.1 101.7L-89.4 101.7L-89.4 98.3L-89.3 96.9L-93.0 96.9L-93.1 101.7Z"/><path class="b" d="M-79.4 101.6L-73.2 101.5L-71.3 101.5L-72.0 82.5L-80.1 82.8L-79.4 101.6Z"/><path class="b" d="M-89.4 98.3L-89.4 101.7L-81.6 101.6L-81.6 98.7L-89.4 98.3Z"/><path class="b" d="M-120.1 102.0L-130.6 102.1L-131.4 102.1L-138.3 102.1L-138.3 108.3L-120.1 108.3L-120.1 102.0Z"/><path class="b" d="M-112.3 141.9L-111.5 151.8L-106.1 151.7L-107.4 143.3L-110.3 143.4L-109.8 142.3L-109.2 142.2L-109.2 141.3L-112.3 141.5L-112.3 141.9Z"/><path class="b" d="M-107.9 139.5L-108.2 137.8L-108.4 136.3L-112.9 136.5L-113.2 131.8L-113.3 130.6L-114.0 130.6L-122.0 130.8L-122.0 136.0L-118.7 135.8L-118.6 136.9L-116.3 136.7L-116.3 135.7L-114.1 135.6L-114.1 137.1L-115.1 137.1L-114.8 140.2L-107.9 139.5Z"/><path class="b" d="M-122.0 151.8L-111.5 151.8L-112.3 141.9L-116.2 142.0L-116.1 143.8L-120.2 143.9L-120.1 146.4L-122.0 146.4L-122.0 151.8Z"/><path class="b" d="M-140.8 152.0L-132.9 151.9L-132.9 146.9L-132.9 143.1L-132.9 143.0L-133.3 141.0L-138.2 141.2L-138.2 140.0L-140.1 140.1L-140.1 141.2L-140.8 141.2L-140.8 152.0Z"/><path class="b" d="M-133.8 138.5L-135.5 131.0L-144.5 131.2L-144.2 134.1L-144.1 137.1L-142.0 137.0L-142.0 136.0L-136.0 135.7L-135.3 138.4L-133.8 138.5Z"/><path class="ba" d="M-31.3 92.6L-29.8 84.0L-28.7 81.6L-18.5 88.7L-12.5 82.0L-13.5 81.8L-13.6 82.9L-14.1 82.8L-13.7 80.2L-17.0 79.7L-17.5 82.3L-19.4 82.0L-19.2 80.8L-34.0 78.3L-34.3 79.4L-34.9 79.2L-34.5 76.7L-37.7 76.2L-38.2 78.7L-40.0 78.3L-40.0 77.3L-58.6 74.2L-59.0 77.1L-58.0 82.9L-57.2 83.2L-57.6 88.0L-31.3 92.6Z"/><path class="b" d="M-101.7 125.8L-114.0 126.3L-113.3 130.6L-113.2 131.8L-101.6 131.4L-101.7 125.8Z"/><path class="b" d="M-64.8 124.2L-71.9 124.6L-78.6 124.9L-92.4 125.5L-94.3 125.5L-93.8 135.3L-81.6 134.6L-80.7 134.5L-76.2 134.5L-76.4 129.8L-71.0 129.5L-64.6 129.2L-64.8 124.2Z"/><path class="b" d="M-94.3 111.1L-92.9 111.0L-92.9 105.4L-93.6 105.4L-93.7 101.7L-105.0 101.9L-104.8 108.2L-105.9 108.2L-105.9 111.3L-97.5 111.1L-94.3 111.1Z"/><path class="b" d="M-103.8 137.6L-104.0 136.0L-108.4 136.3L-108.2 137.8L-103.8 137.6Z"/><path class="b" d="M-107.9 139.5L-107.4 143.3L-106.1 151.7L-102.1 151.7L-103.0 144.3L-105.0 144.5L-105.6 140.2L-106.3 140.3L-106.4 139.3L-107.9 139.5Z"/><path class="b" d="M-132.9 151.9L-123.7 151.9L-124.0 134.1L-129.6 134.2L-129.8 142.8L-132.9 143.1L-132.9 151.9Z"/><path class="b" d="M-53.9 123.6L-55.4 119.3L-72.3 119.9L-71.9 124.6L-53.9 123.6Z"/><path class="b" d="M-114.4 120.2L-114.1 126.4L-92.4 125.5L-92.8 116.5L-105.8 116.8L-105.7 119.9L-114.4 120.2Z"/><path class="b" d="M-93.9 43.5L-101.1 43.6L-100.8 60.2L-100.7 67.1L-122.8 67.4L-122.6 78.6L-100.6 78.2L-100.6 71.9L-89.5 71.7L-89.7 60.6L-89.8 43.5L-93.9 43.5Z"/><path class="b" d="M-128.8 130.9L-124.4 130.8L-124.5 126.5L-128.9 126.7L-128.8 130.9Z"/><path class="b" d="M-142.9 99.4L-142.7 102.2L-138.3 102.1L-131.4 102.1L-131.6 99.1L-142.9 99.4Z"/><path class="b" d="M-113.2 131.8L-112.9 136.5L-108.4 136.3L-104.0 136.0L-101.3 135.8L-99.1 135.7L-96.2 135.5L-93.8 135.3L-94.3 125.5L-101.7 125.8L-101.6 131.4L-113.2 131.8Z"/><path class="b" d="M-105.8 116.8L-94.2 116.6L-94.3 111.1L-105.9 111.3L-105.8 116.8Z"/><path class="b" d="M-150.5 131.3L-150.5 135.0L-144.2 134.6L-144.2 134.1L-144.5 131.2L-150.5 131.3Z"/><path class="b" d="M-68.7 101.4L-61.6 101.4L-62.7 97.4L-69.1 98.3L-68.7 101.4Z"/><path class="b" d="M-59.2 134.3L-63.5 134.3L-63.6 139.4L-63.7 142.1L-59.4 142.1L-59.2 134.3Z"/><path class="b" d="M-55.3 142.0L-46.6 141.9L-49.3 134.1L-50.3 134.1L-54.3 134.2L-52.1 140.8L-55.4 140.9L-55.3 142.0Z"/><path class="b" d="M-63.6 139.4L-63.5 134.3L-63.7 134.3L-70.1 134.4L-69.9 139.5L-63.6 139.4Z"/><path class="b" d="M-45.9 147.7L-46.6 142.1L-46.6 141.9L-55.3 142.0L-58.0 142.0L-58.0 151.3L-54.4 151.3L-54.3 147.7L-45.9 147.7Z"/><path class="b" d="M-69.5 151.4L-65.7 151.4L-65.6 146.6L-69.7 146.6L-69.5 151.4Z"/><path class="b" d="M-15.0 142.1L-16.5 152.9L-15.4 153.2L4.6 156.4L5.9 148.0L6.2 145.6L2.2 144.9L-15.0 142.1Z"/><path class="b" d="M-59.5 129.0L-58.7 131.7L-64.1 132.9L-63.7 134.3L-63.5 134.3L-59.2 134.3L-54.3 134.2L-50.3 134.1L-53.9 123.6L-61.0 124.0L-59.5 129.0Z"/><path class="b" d="M-70.5 107.4L-59.7 107.1L-61.2 102.8L-61.6 101.4L-68.7 101.4L-70.6 101.5L-70.5 107.4Z"/><path class="ba" d="M10.1 51.3L-4.5 36.3L-6.5 47.7L-0.8 50.7L-1.6 51.8L-3.6 51.0L-4.9 52.5L-7.1 51.9L-7.1 52.6L-6.6 57.7L-6.3 59.2L-6.0 60.2L-5.6 61.1L-5.1 62.0L-4.6 62.9L-3.9 63.9L-3.3 64.7L-2.3 65.9L9.8 54.2L8.5 52.9L10.1 51.3Z"/><path class="b" d="M-12.5 82.0L-18.5 88.7L-28.7 81.6L-29.8 84.0L-31.3 92.6L-12.8 95.8L-10.8 94.2L-0.8 86.2L0.3 85.4L-1.5 85.1L-1.3 83.9L-3.9 83.5L-12.5 82.0Z"/><path class="b" d="M-76.2 134.5L-70.8 134.4L-71.0 129.5L-76.4 129.8L-76.2 134.5Z"/><path class="b" d="M-61.0 124.0L-64.8 124.2L-64.6 129.2L-59.5 129.0L-61.0 124.0Z"/><path class="b" d="M-70.6 101.5L-71.3 101.5L-73.2 101.5L-73.2 106.3L-72.2 107.5L-70.5 107.4L-70.6 101.5Z"/><path class="b" d="M-19.9 106.0L-19.6 104.2L-30.4 102.2L-30.7 104.1L-19.9 106.0Z"/><path class="ba" d="M-12.8 95.8L9.1 98.3L11.2 96.1L10.2 95.2L18.7 86.3L17.6 85.2L17.9 84.9L14.3 81.6L5.3 90.9L4.5 90.3L4.9 89.8L0.3 85.4L-0.8 86.2L-2.7 87.7L-7.5 91.6L-8.6 92.5L-12.8 95.8Z"/><path class="b" d="M51.4 103.8L54.3 100.0L54.2 96.7L42.7 84.8L38.4 89.0L38.2 89.2L38.4 89.7L41.1 93.8L41.4 94.1L51.4 103.8Z"/><path class="ba" d="M41.4 94.1L40.0 95.3L41.9 97.3L40.1 99.0L39.3 99.8L47.7 108.8L51.4 103.8L41.4 94.1Z"/><path class="ba" d="M40.0 95.3L38.2 96.9L40.1 99.0L41.9 97.3L40.0 95.3Z"/><path class="ba" d="M33.5 75.3L29.7 79.3L28.5 80.5L27.9 79.9L26.3 81.6L30.4 85.5L32.0 83.8L37.0 88.6L26.3 97.7L32.1 103.2L38.2 96.9L40.0 95.3L41.4 94.1L41.1 93.8L38.4 89.7L38.2 89.2L38.4 89.0L39.4 88.1L42.7 84.8L37.9 79.9L35.6 77.5L33.5 75.3Z"/><path class="ba" d="M19.7 87.3L18.7 86.3L10.2 95.2L11.2 96.1L19.7 87.3Z"/><path class="b" d="M57.1 115.6L54.8 121.7L60.5 123.8L62.7 117.7L57.1 115.6Z"/><path class="b" d="M-195.6 44.5L-195.7 56.1L-197.5 56.1L-197.5 56.9L-193.5 56.9L-193.5 56.7L-190.6 56.7L-190.6 57.0L-185.8 57.1L-157.5 57.3L-156.3 58.1L-145.5 57.6L-145.4 52.5L-147.9 52.4L-147.9 47.9L-145.3 47.8L-145.3 45.1L-169.8 44.8L-169.9 44.8L-195.6 44.5Z"/><path class="b" d="M-161.1 17.7L-160.6 24.8L-142.6 23.4L-142.6 22.6L-136.9 22.2L-137.3 15.9L-161.1 17.7Z"/><path class="ba" d="M-96.1 -11.2L-96.3 -11.2L-95.8 4.5L-95.6 7.6L-80.6 6.9L-81.1 -20.0L-80.3 -20.2L-79.3 -36.7L-94.5 -30.9L-92.2 -15.3L-91.6 -11.3L-96.1 -11.2Z"/><path class="b" d="M-105.1 4.8L-104.9 8.0L-103.1 7.9L-95.6 7.6L-95.8 4.5L-105.1 4.8Z"/><path class="b" d="M-94.5 26.4L-78.3 25.5L-80.5 8.6L-80.6 6.9L-95.6 7.6L-103.1 7.9L-102.8 14.0L-95.0 13.6L-94.5 26.4Z"/><path class="b" d="M-109.9 43.7L-101.1 43.6L-93.9 43.5L-94.9 26.4L-110.7 27.3L-109.9 43.7Z"/><path class="b" d="M-130.6 43.9L-135.5 43.9L-135.3 46.9L-130.6 46.9L-130.6 43.9Z"/><path class="b" d="M-111.4 10.2L-111.5 8.2L-115.0 8.4L-115.1 8.4L-115.1 10.3L-111.4 10.2Z"/><path class="b" d="M-139.0 -8.7L-138.1 4.8L-115.5 3.6L-116.6 -9.3L-116.7 -10.0L-123.9 -9.6L-124.2 -11.9L-128.5 -11.6L-128.4 -9.3L-139.0 -8.7Z"/><path class="b" d="M-56.0 3.4L-51.8 7.8L-49.8 7.9L-44.6 8.0L-39.3 2.9L-42.6 -0.6L-41.5 -1.7L-50.9 -11.3L-55.0 -7.4L-73.4 -8.3L-73.3 4.5L-59.7 4.9L-59.6 3.2L-56.0 3.4Z"/><path class="b" d="M-80.0 61.0L-79.8 67.7L-71.5 67.5L-73.3 61.2L-80.0 61.0Z"/><path class="b" d="M-102.1 26.8L-94.9 26.4L-94.5 26.4L-94.7 21.0L-102.4 21.4L-102.1 26.8Z"/><path class="b" d="M-102.8 14.0L-102.6 16.9L-94.9 16.5L-95.0 13.6L-102.8 14.0Z"/><path class="b" d="M17.1 71.5L24.2 65.8L14.4 55.7L12.7 57.3L7.8 62.1L17.1 71.5Z"/><path class="ba" d="M-6.7 34.0L-13.4 27.1L-22.5 35.8L-22.5 38.0L-22.2 38.3L-22.5 38.6L-22.7 49.6L-22.1 49.0L-21.6 49.2L-21.1 49.4L-20.7 49.5L-20.2 49.4L-19.7 49.1L-19.4 48.8L-19.1 48.3L-19.1 47.8L-19.1 47.3L-19.4 46.8L-21.8 44.3L-19.0 41.5L-16.9 43.7L-6.7 34.0Z"/><path class="b" d="M-62.4 40.2L-54.5 44.0L-54.1 41.9L-62.4 40.2Z"/><path class="b" d="M-41.6 49.9L-41.6 50.4L-25.4 58.5L-22.8 54.6L-22.7 50.5L-23.2 50.0L-22.7 49.6L-22.5 38.6L-24.9 40.9L-28.5 37.3L-41.6 49.9Z"/><path class="b" d="M-40.2 19.8L-40.0 15.4L-33.3 9.1L-39.3 2.9L-44.6 8.0L-49.8 7.9L-51.8 7.8L-40.2 19.8Z"/><path class="b" d="M-16.7 23.6L-24.3 15.9L-25.5 17.1L-33.3 9.1L-40.0 15.4L-40.2 19.8L-22.5 38.0L-22.5 35.8L-13.4 27.1L-15.4 25.0L-16.7 26.2L-18.0 24.9L-16.7 23.6Z"/><path class="b" d="M-66.3 27.3L-65.0 26.1L-66.8 24.3L-68.1 25.4L-68.7 26.0L-69.8 24.9L-70.0 25.5L-70.1 26.0L-70.2 26.5L-70.3 27.1L-70.2 27.7L-70.1 28.2L-69.9 28.9L-69.5 29.6L-69.2 30.1L-68.7 30.7L-67.8 31.5L-67.1 32.0L-66.4 32.4L-64.8 33.1L-64.6 32.9L-63.4 31.8L-66.9 27.8L-66.3 27.3Z"/><path class="ba" d="M-51.5 66.2L-50.4 58.9L-63.3 56.6L-63.7 59.3L-62.9 65.7L-62.0 66.2L-62.2 69.4L-52.2 71.0L-52.1 70.0L-51.5 66.2Z"/><path class="ba" d="M-55.3 48.3L-54.5 44.0L-62.4 40.2L-66.5 39.3L-67.1 41.9L-66.3 48.5L-65.4 48.7L-66.0 51.9L-56.4 53.9L-56.1 52.1L-55.3 48.3Z"/><path class="ba" d="M-42.1 55.7L-40.4 68.4L-32.4 65.7L-29.1 64.6L-26.4 63.5L-25.4 63.0L-24.3 62.3L-23.5 61.8L-22.6 61.1L-21.9 60.4L-21.2 59.6L-20.6 58.8L-20.0 57.8L-19.3 56.4L-18.7 55.0L-22.7 50.5L-22.8 54.6L-25.4 58.5L-41.6 50.4L-42.0 50.3L-42.2 50.5L-40.8 52.1L-41.6 52.9L-39.4 55.3L-40.4 56.2L-40.7 55.8L-40.8 55.7L-40.9 55.5L-41.2 55.4L-41.4 55.3L-41.7 55.3L-41.9 55.5L-42.1 55.7Z"/><path class="b" d="M9.8 54.2L-2.3 65.9L-2.1 66.1L-0.9 67.2L1.1 68.7L7.8 62.1L12.7 57.3L9.8 54.2Z"/><path class="b" d="M-15.4 25.0L-16.7 23.6L-18.0 24.9L-16.7 26.2L-15.4 25.0Z"/><path class="b" d="M-69.8 24.9L-68.7 26.0L-68.1 25.4L-69.3 24.1L-69.5 24.5L-69.6 24.8L-69.8 24.9Z"/><path class="b" d="M-66.3 27.3L-66.9 27.8L-63.4 31.8L-64.6 32.9L-62.8 34.8L-61.1 33.2L-66.3 27.3Z"/><path class="ba" d="M-52.1 70.0L-51.3 70.1L-51.4 71.1L-48.6 71.6L-47.6 65.7L-50.5 65.2L-50.7 66.2L-51.5 66.2L-52.1 70.0Z"/><path class="ba" d="M-56.1 52.1L-55.3 52.3L-55.6 53.4L-52.5 54.0L-51.4 48.3L-54.4 47.6L-54.6 48.4L-55.3 48.3L-56.1 52.1Z"/><path class="ba" d="M-41.6 52.9L-42.4 53.7L-42.1 55.7L-41.9 55.5L-41.7 55.3L-41.4 55.3L-41.2 55.4L-40.9 55.5L-40.8 55.7L-40.7 55.8L-40.4 56.2L-39.4 55.3L-41.6 52.9Z"/><path class="ba" d="M-6.5 47.7L-7.1 51.9L-4.9 52.5L-3.6 51.0L-1.6 51.8L-0.8 50.7L-6.5 47.7Z"/><path class="ba" d="M9.8 54.2L11.4 52.6L10.1 51.3L8.5 52.9L9.8 54.2Z"/><path class="b" d="M12.7 57.3L14.4 55.7L14.3 55.5L11.4 52.6L9.8 54.2L12.7 57.3Z"/><path class="ba" d="M24.2 65.8L17.1 71.5L22.9 77.3L25.2 75.0L26.9 73.4L29.7 76.3L32.1 73.9L24.2 65.8Z"/><path class="ba" d="M33.5 75.3L32.1 73.9L29.7 76.3L26.9 73.4L25.2 75.0L28.6 78.2L29.7 79.3L33.5 75.3Z"/><path class="b" d="M-106.3 -10.4L-106.3 -10.6L-104.6 -10.7L-102.7 -10.8L-103.7 -15.9L-105.9 -27.1L-109.7 -26.5L-107.6 -12.9L-106.6 -13.1L-106.4 -10.6L-106.3 -10.4Z"/><path class="b" d="M-104.6 -10.7L-106.3 -10.6L-106.3 -10.4L-106.2 -9.0L-104.5 -9.2L-104.6 -10.7Z"/><path class="b" d="M-139.5 -15.5L-139.9 -21.9L-151.0 -20.3L-150.4 -9.9L-150.3 -8.1L-148.5 -8.4L-148.3 -5.9L-146.2 -6.1L-147.0 -14.4L-139.5 -15.5Z"/><path class="b" d="M-92.2 -15.3L-94.5 -30.9L-105.7 -27.1L-105.9 -27.1L-103.7 -15.9L-100.4 -16.8L-101.0 -19.4L-99.2 -19.9L-98.9 -20.6L-99.2 -21.7L-96.6 -22.6L-95.3 -14.7L-92.2 -15.3Z"/><path class="b" d="M-55.9 -16.4L-59.2 -13.7L-59.5 -13.6L-59.7 -17.2L-65.0 -17.0L-65.0 -18.8L-65.3 -18.8L-73.5 -19.2L-73.4 -8.3L-55.0 -7.4L-50.9 -11.3L-55.9 -16.4Z"/><path class="b" d="M-96.1 -11.2L-91.6 -11.3L-92.2 -15.3L-95.3 -14.7L-96.1 -11.2Z"/><path class="b" d="M-67.2 -27.9L-70.9 -31.8L-73.6 -30.8L-73.5 -19.2L-67.0 -18.9L-67.2 -27.9Z"/><path class="b" d="M-59.7 4.9L-56.8 5.0L-56.0 3.4L-59.6 3.2L-59.7 4.9Z"/><path class="b" d="M-163.8 -78.6L-153.5 -83.3L-147.1 -86.2L-141.6 -88.5L-134.4 -91.5L-132.0 -94.1L-131.7 -94.4L-135.7 -98.5L-141.1 -93.2L-140.5 -92.5L-145.2 -90.2L-146.5 -92.4L-148.4 -95.9L-149.2 -97.3L-150.5 -96.7L-169.6 -87.4L-169.7 -87.4L-169.4 -76.2L-166.1 -77.6L-163.8 -78.6Z"/><path class="b" d="M-122.7 -65.5L-127.9 -70.9L-132.3 -66.7L-133.8 -68.3L-134.4 -67.8L-142.3 -75.7L-143.1 -75.0L-148.0 -80.0L-153.3 -77.7L-157.4 -75.9L-162.9 -73.5L-162.6 -72.9L-165.0 -71.8L-165.3 -72.4L-177.4 -67.1L-177.3 -66.5L-177.0 -62.1L-176.5 -55.8L-174.2 -56.8L-168.9 -59.1L-168.5 -58.0L-170.3 -57.3L-170.2 -57.1L-167.1 -49.9L-161.0 -51.7L-157.1 -52.8L-161.6 -62.9L-155.5 -65.5L-150.5 -67.7L-146.6 -63.3L-147.7 -62.4L-143.8 -58.0L-140.7 -54.5L-140.2 -53.9L-138.7 -54.7L-137.7 -55.2L-136.2 -52.0L-127.8 -54.2L-129.3 -57.3L-129.9 -58.6L-127.1 -61.3L-122.7 -65.5Z"/><path class="b" d="M-108.7 -59.2L-108.6 -59.0L-108.4 -53.0L-105.2 -51.1L-104.7 -49.2L-103.4 -43.4L-90.1 -45.5L-88.6 -50.2L-105.4 -67.4L-108.7 -64.1L-106.3 -61.7L-108.7 -59.2Z"/><path class="b" d="M-152.2 -37.8L-151.9 -35.9L-151.2 -30.2L-142.2 -31.5L-143.3 -39.0L-152.2 -37.8Z"/><path class="b" d="M-141.2 -40.9L-140.9 -40.9L-141.0 -42.0L-142.2 -41.8L-142.0 -40.8L-141.2 -40.9Z"/><path class="b" d="M-140.8 -36.9L-140.0 -29.5L-124.2 -31.8L-125.1 -39.3L-129.9 -38.3L-130.1 -39.6L-131.1 -39.4L-130.9 -38.4L-140.8 -36.9Z"/><path class="b" d="M-114.3 -41.6L-111.2 -41.9L-111.8 -48.0L-111.9 -49.9L-118.0 -50.2L-117.8 -49.1L-130.9 -44.4L-130.1 -39.6L-129.9 -38.3L-125.1 -39.3L-125.2 -40.7L-124.0 -40.9L-124.1 -41.8L-115.0 -43.5L-114.8 -41.5L-114.3 -41.6Z"/><path class="b" d="M-121.5 -83.5L-132.0 -94.1L-134.4 -91.5L-141.6 -88.5L-132.7 -79.5L-133.7 -78.5L-130.3 -75.1L-121.5 -83.5Z"/><path class="ba" d="M-111.2 -41.9L-114.3 -41.6L-114.2 -40.0L-114.0 -33.3L-106.7 -34.3L-101.8 -36.7L-103.4 -43.4L-104.7 -49.2L-109.7 -48.4L-109.6 -47.0L-108.5 -47.1L-108.2 -43.2L-109.1 -43.2L-109.0 -42.2L-111.2 -41.9Z"/><path class="b" d="M-117.5 -32.8L-114.0 -33.3L-114.2 -40.0L-117.9 -39.6L-117.5 -32.8Z"/><path class="b" d="M-108.7 -64.1L-110.8 -61.9L-108.7 -59.2L-106.3 -61.7L-108.7 -64.1Z"/><path class="b" d="M-155.5 -65.5L-155.0 -64.2L-150.9 -66.0L-147.7 -62.4L-146.6 -63.3L-150.5 -67.7L-155.5 -65.5Z"/><path class="b" d="M-138.7 -54.7L-137.3 -51.8L-136.2 -52.0L-137.7 -55.2L-138.7 -54.7Z"/></svg>
